<mxfile host="65bd71144e">
    <diagram id="62t4VWJp8sgxWXZDW6Td" name="第 1 页">
        <mxGraphModel dx="723" dy="1668" grid="1" gridSize="10" guides="1" tooltips="1" connect="1" arrows="1" fold="1" page="1" pageScale="1" pageWidth="827" pageHeight="1169" math="0" shadow="0">
            <root>
                <mxCell id="0"/>
                <mxCell id="1" parent="0"/>
                <mxCell id="DQ-XxoIGuYa2lr0NDk-D-1" value="permissions(菜单&amp;权限表)" style="shape=table;startSize=30;container=1;collapsible=1;childLayout=tableLayout;fixedRows=1;rowLines=0;fontStyle=1;align=center;resizeLast=1;fontSize=12;shadow=0;rounded=0;" parent="1" vertex="1">
                    <mxGeometry x="44" y="-317.5" width="370" height="385" as="geometry">
                        <mxRectangle x="230" y="360" width="60" height="30" as="alternateBounds"/>
                    </mxGeometry>
                </mxCell>
                <mxCell id="DQ-XxoIGuYa2lr0NDk-D-2" style="shape=partialRectangle;collapsible=0;dropTarget=0;pointerEvents=0;fillColor=none;top=0;left=0;bottom=0;right=0;points=[[0,0.5],[1,0.5]];portConstraint=eastwest;shadow=0;" parent="DQ-XxoIGuYa2lr0NDk-D-1" vertex="1">
                    <mxGeometry y="30" width="370" height="20" as="geometry"/>
                </mxCell>
                <mxCell id="DQ-XxoIGuYa2lr0NDk-D-3" value="PK" style="shape=partialRectangle;connectable=0;fillColor=none;top=0;left=0;bottom=0;right=0;editable=1;overflow=hidden;shadow=0;" parent="DQ-XxoIGuYa2lr0NDk-D-2" vertex="1">
                    <mxGeometry width="30" height="20" as="geometry">
                        <mxRectangle width="30" height="20" as="alternateBounds"/>
                    </mxGeometry>
                </mxCell>
                <mxCell id="DQ-XxoIGuYa2lr0NDk-D-4" value="id" style="shape=partialRectangle;connectable=0;fillColor=none;top=0;left=0;bottom=0;right=0;align=left;spacingLeft=6;overflow=hidden;shadow=0;" parent="DQ-XxoIGuYa2lr0NDk-D-2" vertex="1">
                    <mxGeometry x="30" width="70" height="20" as="geometry">
                        <mxRectangle width="70" height="20" as="alternateBounds"/>
                    </mxGeometry>
                </mxCell>
                <mxCell id="DQ-XxoIGuYa2lr0NDk-D-5" value="int(10)" style="shape=partialRectangle;connectable=0;fillColor=none;top=0;left=0;bottom=0;right=0;align=left;spacingLeft=6;overflow=hidden;shadow=0;" parent="DQ-XxoIGuYa2lr0NDk-D-2" vertex="1">
                    <mxGeometry x="100" width="60" height="20" as="geometry">
                        <mxRectangle width="60" height="20" as="alternateBounds"/>
                    </mxGeometry>
                </mxCell>
                <mxCell id="DQ-XxoIGuYa2lr0NDk-D-6" value="unsigned, auto" style="shape=partialRectangle;connectable=0;fillColor=none;top=0;left=0;bottom=0;right=0;align=left;spacingLeft=6;overflow=hidden;shadow=0;" parent="DQ-XxoIGuYa2lr0NDk-D-2" vertex="1">
                    <mxGeometry x="160" width="140" height="20" as="geometry">
                        <mxRectangle width="140" height="20" as="alternateBounds"/>
                    </mxGeometry>
                </mxCell>
                <mxCell id="DQ-XxoIGuYa2lr0NDk-D-7" value="主键" style="shape=partialRectangle;connectable=0;fillColor=none;top=0;left=0;bottom=0;right=0;align=left;spacingLeft=6;overflow=hidden;shadow=0;" parent="DQ-XxoIGuYa2lr0NDk-D-2" vertex="1">
                    <mxGeometry x="300" width="70" height="20" as="geometry">
                        <mxRectangle width="70" height="20" as="alternateBounds"/>
                    </mxGeometry>
                </mxCell>
                <mxCell id="DQ-XxoIGuYa2lr0NDk-D-8" value="" style="shape=partialRectangle;collapsible=0;dropTarget=0;pointerEvents=0;fillColor=none;top=0;left=0;bottom=0;right=0;points=[[0,0.5],[1,0.5]];portConstraint=eastwest;shadow=0;" parent="DQ-XxoIGuYa2lr0NDk-D-1" vertex="1">
                    <mxGeometry y="50" width="370" height="20" as="geometry"/>
                </mxCell>
                <mxCell id="DQ-XxoIGuYa2lr0NDk-D-9" value="N" style="shape=partialRectangle;connectable=0;fillColor=none;top=0;left=0;bottom=0;right=0;editable=1;overflow=hidden;shadow=0;" parent="DQ-XxoIGuYa2lr0NDk-D-8" vertex="1">
                    <mxGeometry width="30" height="20" as="geometry">
                        <mxRectangle width="30" height="20" as="alternateBounds"/>
                    </mxGeometry>
                </mxCell>
                <mxCell id="DQ-XxoIGuYa2lr0NDk-D-10" value="parent_id" style="shape=partialRectangle;connectable=0;fillColor=none;top=0;left=0;bottom=0;right=0;align=left;spacingLeft=6;overflow=hidden;shadow=0;" parent="DQ-XxoIGuYa2lr0NDk-D-8" vertex="1">
                    <mxGeometry x="30" width="70" height="20" as="geometry">
                        <mxRectangle width="70" height="20" as="alternateBounds"/>
                    </mxGeometry>
                </mxCell>
                <mxCell id="DQ-XxoIGuYa2lr0NDk-D-11" value="int(10)" style="shape=partialRectangle;connectable=0;fillColor=none;top=0;left=0;bottom=0;right=0;align=left;spacingLeft=6;overflow=hidden;shadow=0;" parent="DQ-XxoIGuYa2lr0NDk-D-8" vertex="1">
                    <mxGeometry x="100" width="60" height="20" as="geometry">
                        <mxRectangle width="60" height="20" as="alternateBounds"/>
                    </mxGeometry>
                </mxCell>
                <mxCell id="DQ-XxoIGuYa2lr0NDk-D-12" value="unsigned" style="shape=partialRectangle;connectable=0;fillColor=none;top=0;left=0;bottom=0;right=0;align=left;spacingLeft=6;overflow=hidden;shadow=0;" parent="DQ-XxoIGuYa2lr0NDk-D-8" vertex="1">
                    <mxGeometry x="160" width="140" height="20" as="geometry">
                        <mxRectangle width="140" height="20" as="alternateBounds"/>
                    </mxGeometry>
                </mxCell>
                <mxCell id="DQ-XxoIGuYa2lr0NDk-D-13" value="父级id" style="shape=partialRectangle;connectable=0;fillColor=none;top=0;left=0;bottom=0;right=0;align=left;spacingLeft=6;overflow=hidden;shadow=0;" parent="DQ-XxoIGuYa2lr0NDk-D-8" vertex="1">
                    <mxGeometry x="300" width="70" height="20" as="geometry">
                        <mxRectangle width="70" height="20" as="alternateBounds"/>
                    </mxGeometry>
                </mxCell>
                <mxCell id="DQ-XxoIGuYa2lr0NDk-D-14" value="" style="shape=partialRectangle;collapsible=0;dropTarget=0;pointerEvents=0;fillColor=none;top=0;left=0;bottom=0;right=0;points=[[0,0.5],[1,0.5]];portConstraint=eastwest;shadow=0;" parent="DQ-XxoIGuYa2lr0NDk-D-1" vertex="1">
                    <mxGeometry y="70" width="370" height="20" as="geometry"/>
                </mxCell>
                <mxCell id="DQ-XxoIGuYa2lr0NDk-D-15" value="" style="shape=partialRectangle;connectable=0;fillColor=none;top=0;left=0;bottom=0;right=0;editable=1;overflow=hidden;shadow=0;" parent="DQ-XxoIGuYa2lr0NDk-D-14" vertex="1">
                    <mxGeometry width="30" height="20" as="geometry">
                        <mxRectangle width="30" height="20" as="alternateBounds"/>
                    </mxGeometry>
                </mxCell>
                <mxCell id="DQ-XxoIGuYa2lr0NDk-D-16" value="title" style="shape=partialRectangle;connectable=0;fillColor=none;top=0;left=0;bottom=0;right=0;align=left;spacingLeft=6;overflow=hidden;shadow=0;" parent="DQ-XxoIGuYa2lr0NDk-D-14" vertex="1">
                    <mxGeometry x="30" width="70" height="20" as="geometry">
                        <mxRectangle width="70" height="20" as="alternateBounds"/>
                    </mxGeometry>
                </mxCell>
                <mxCell id="DQ-XxoIGuYa2lr0NDk-D-17" value="varchar" style="shape=partialRectangle;connectable=0;fillColor=none;top=0;left=0;bottom=0;right=0;align=left;spacingLeft=6;overflow=hidden;shadow=0;" parent="DQ-XxoIGuYa2lr0NDk-D-14" vertex="1">
                    <mxGeometry x="100" width="60" height="20" as="geometry">
                        <mxRectangle width="60" height="20" as="alternateBounds"/>
                    </mxGeometry>
                </mxCell>
                <mxCell id="DQ-XxoIGuYa2lr0NDk-D-18" value="" style="shape=partialRectangle;connectable=0;fillColor=none;top=0;left=0;bottom=0;right=0;align=left;spacingLeft=6;overflow=hidden;shadow=0;" parent="DQ-XxoIGuYa2lr0NDk-D-14" vertex="1">
                    <mxGeometry x="160" width="140" height="20" as="geometry">
                        <mxRectangle width="140" height="20" as="alternateBounds"/>
                    </mxGeometry>
                </mxCell>
                <mxCell id="DQ-XxoIGuYa2lr0NDk-D-19" value="标题" style="shape=partialRectangle;connectable=0;fillColor=none;top=0;left=0;bottom=0;right=0;align=left;spacingLeft=6;overflow=hidden;shadow=0;" parent="DQ-XxoIGuYa2lr0NDk-D-14" vertex="1">
                    <mxGeometry x="300" width="70" height="20" as="geometry">
                        <mxRectangle width="70" height="20" as="alternateBounds"/>
                    </mxGeometry>
                </mxCell>
                <mxCell id="DQ-XxoIGuYa2lr0NDk-D-20" value="" style="shape=partialRectangle;collapsible=0;dropTarget=0;pointerEvents=0;fillColor=none;top=0;left=0;bottom=0;right=0;points=[[0,0.5],[1,0.5]];portConstraint=eastwest;shadow=0;" parent="DQ-XxoIGuYa2lr0NDk-D-1" vertex="1">
                    <mxGeometry y="90" width="370" height="20" as="geometry"/>
                </mxCell>
                <mxCell id="DQ-XxoIGuYa2lr0NDk-D-21" value="N" style="shape=partialRectangle;connectable=0;fillColor=none;top=0;left=0;bottom=0;right=0;editable=1;overflow=hidden;shadow=0;" parent="DQ-XxoIGuYa2lr0NDk-D-20" vertex="1">
                    <mxGeometry width="30" height="20" as="geometry">
                        <mxRectangle width="30" height="20" as="alternateBounds"/>
                    </mxGeometry>
                </mxCell>
                <mxCell id="DQ-XxoIGuYa2lr0NDk-D-22" value="name" style="shape=partialRectangle;connectable=0;fillColor=none;top=0;left=0;bottom=0;right=0;align=left;spacingLeft=6;overflow=hidden;shadow=0;" parent="DQ-XxoIGuYa2lr0NDk-D-20" vertex="1">
                    <mxGeometry x="30" width="70" height="20" as="geometry">
                        <mxRectangle width="70" height="20" as="alternateBounds"/>
                    </mxGeometry>
                </mxCell>
                <mxCell id="DQ-XxoIGuYa2lr0NDk-D-23" value="varchar" style="shape=partialRectangle;connectable=0;fillColor=none;top=0;left=0;bottom=0;right=0;align=left;spacingLeft=6;overflow=hidden;shadow=0;" parent="DQ-XxoIGuYa2lr0NDk-D-20" vertex="1">
                    <mxGeometry x="100" width="60" height="20" as="geometry">
                        <mxRectangle width="60" height="20" as="alternateBounds"/>
                    </mxGeometry>
                </mxCell>
                <mxCell id="DQ-XxoIGuYa2lr0NDk-D-24" value="" style="shape=partialRectangle;connectable=0;fillColor=none;top=0;left=0;bottom=0;right=0;align=left;spacingLeft=6;overflow=hidden;shadow=0;" parent="DQ-XxoIGuYa2lr0NDk-D-20" vertex="1">
                    <mxGeometry x="160" width="140" height="20" as="geometry">
                        <mxRectangle width="140" height="20" as="alternateBounds"/>
                    </mxGeometry>
                </mxCell>
                <mxCell id="DQ-XxoIGuYa2lr0NDk-D-25" value="名字" style="shape=partialRectangle;connectable=0;fillColor=none;top=0;left=0;bottom=0;right=0;align=left;spacingLeft=6;overflow=hidden;shadow=0;" parent="DQ-XxoIGuYa2lr0NDk-D-20" vertex="1">
                    <mxGeometry x="300" width="70" height="20" as="geometry">
                        <mxRectangle width="70" height="20" as="alternateBounds"/>
                    </mxGeometry>
                </mxCell>
                <mxCell id="DQ-XxoIGuYa2lr0NDk-D-26" value="" style="shape=partialRectangle;collapsible=0;dropTarget=0;pointerEvents=0;fillColor=none;top=0;left=0;bottom=0;right=0;points=[[0,0.5],[1,0.5]];portConstraint=eastwest;shadow=0;" parent="DQ-XxoIGuYa2lr0NDk-D-1" vertex="1">
                    <mxGeometry y="110" width="370" height="20" as="geometry"/>
                </mxCell>
                <mxCell id="DQ-XxoIGuYa2lr0NDk-D-27" value="N" style="shape=partialRectangle;connectable=0;fillColor=none;top=0;left=0;bottom=0;right=0;editable=1;overflow=hidden;shadow=0;" parent="DQ-XxoIGuYa2lr0NDk-D-26" vertex="1">
                    <mxGeometry width="30" height="20" as="geometry">
                        <mxRectangle width="30" height="20" as="alternateBounds"/>
                    </mxGeometry>
                </mxCell>
                <mxCell id="DQ-XxoIGuYa2lr0NDk-D-28" value="path" style="shape=partialRectangle;connectable=0;fillColor=none;top=0;left=0;bottom=0;right=0;align=left;spacingLeft=6;overflow=hidden;shadow=0;" parent="DQ-XxoIGuYa2lr0NDk-D-26" vertex="1">
                    <mxGeometry x="30" width="70" height="20" as="geometry">
                        <mxRectangle width="70" height="20" as="alternateBounds"/>
                    </mxGeometry>
                </mxCell>
                <mxCell id="DQ-XxoIGuYa2lr0NDk-D-29" value="varchar" style="shape=partialRectangle;connectable=0;fillColor=none;top=0;left=0;bottom=0;right=0;align=left;spacingLeft=6;overflow=hidden;shadow=0;" parent="DQ-XxoIGuYa2lr0NDk-D-26" vertex="1">
                    <mxGeometry x="100" width="60" height="20" as="geometry">
                        <mxRectangle width="60" height="20" as="alternateBounds"/>
                    </mxGeometry>
                </mxCell>
                <mxCell id="DQ-XxoIGuYa2lr0NDk-D-30" value="" style="shape=partialRectangle;connectable=0;fillColor=none;top=0;left=0;bottom=0;right=0;align=left;spacingLeft=6;overflow=hidden;shadow=0;" parent="DQ-XxoIGuYa2lr0NDk-D-26" vertex="1">
                    <mxGeometry x="160" width="140" height="20" as="geometry">
                        <mxRectangle width="140" height="20" as="alternateBounds"/>
                    </mxGeometry>
                </mxCell>
                <mxCell id="DQ-XxoIGuYa2lr0NDk-D-31" value="路径" style="shape=partialRectangle;connectable=0;fillColor=none;top=0;left=0;bottom=0;right=0;align=left;spacingLeft=6;overflow=hidden;shadow=0;" parent="DQ-XxoIGuYa2lr0NDk-D-26" vertex="1">
                    <mxGeometry x="300" width="70" height="20" as="geometry">
                        <mxRectangle width="70" height="20" as="alternateBounds"/>
                    </mxGeometry>
                </mxCell>
                <mxCell id="DQ-XxoIGuYa2lr0NDk-D-32" value="" style="shape=partialRectangle;collapsible=0;dropTarget=0;pointerEvents=0;fillColor=none;top=0;left=0;bottom=0;right=0;points=[[0,0.5],[1,0.5]];portConstraint=eastwest;shadow=0;" parent="DQ-XxoIGuYa2lr0NDk-D-1" vertex="1">
                    <mxGeometry y="130" width="370" height="20" as="geometry"/>
                </mxCell>
                <mxCell id="DQ-XxoIGuYa2lr0NDk-D-33" value="N" style="shape=partialRectangle;connectable=0;fillColor=none;top=0;left=0;bottom=0;right=0;editable=1;overflow=hidden;shadow=0;" parent="DQ-XxoIGuYa2lr0NDk-D-32" vertex="1">
                    <mxGeometry width="30" height="20" as="geometry">
                        <mxRectangle width="30" height="20" as="alternateBounds"/>
                    </mxGeometry>
                </mxCell>
                <mxCell id="DQ-XxoIGuYa2lr0NDk-D-34" value="redirect" style="shape=partialRectangle;connectable=0;fillColor=none;top=0;left=0;bottom=0;right=0;align=left;spacingLeft=6;overflow=hidden;shadow=0;" parent="DQ-XxoIGuYa2lr0NDk-D-32" vertex="1">
                    <mxGeometry x="30" width="70" height="20" as="geometry">
                        <mxRectangle width="70" height="20" as="alternateBounds"/>
                    </mxGeometry>
                </mxCell>
                <mxCell id="DQ-XxoIGuYa2lr0NDk-D-35" value="varchar" style="shape=partialRectangle;connectable=0;fillColor=none;top=0;left=0;bottom=0;right=0;align=left;spacingLeft=6;overflow=hidden;shadow=0;" parent="DQ-XxoIGuYa2lr0NDk-D-32" vertex="1">
                    <mxGeometry x="100" width="60" height="20" as="geometry">
                        <mxRectangle width="60" height="20" as="alternateBounds"/>
                    </mxGeometry>
                </mxCell>
                <mxCell id="DQ-XxoIGuYa2lr0NDk-D-36" value="" style="shape=partialRectangle;connectable=0;fillColor=none;top=0;left=0;bottom=0;right=0;align=left;spacingLeft=6;overflow=hidden;shadow=0;" parent="DQ-XxoIGuYa2lr0NDk-D-32" vertex="1">
                    <mxGeometry x="160" width="140" height="20" as="geometry">
                        <mxRectangle width="140" height="20" as="alternateBounds"/>
                    </mxGeometry>
                </mxCell>
                <mxCell id="DQ-XxoIGuYa2lr0NDk-D-37" value="重定向" style="shape=partialRectangle;connectable=0;fillColor=none;top=0;left=0;bottom=0;right=0;align=left;spacingLeft=6;overflow=hidden;shadow=0;" parent="DQ-XxoIGuYa2lr0NDk-D-32" vertex="1">
                    <mxGeometry x="300" width="70" height="20" as="geometry">
                        <mxRectangle width="70" height="20" as="alternateBounds"/>
                    </mxGeometry>
                </mxCell>
                <mxCell id="DQ-XxoIGuYa2lr0NDk-D-38" value="" style="shape=partialRectangle;collapsible=0;dropTarget=0;pointerEvents=0;fillColor=none;top=0;left=0;bottom=0;right=0;points=[[0,0.5],[1,0.5]];portConstraint=eastwest;shadow=0;" parent="DQ-XxoIGuYa2lr0NDk-D-1" vertex="1">
                    <mxGeometry y="150" width="370" height="20" as="geometry"/>
                </mxCell>
                <mxCell id="DQ-XxoIGuYa2lr0NDk-D-39" value="N" style="shape=partialRectangle;connectable=0;fillColor=none;top=0;left=0;bottom=0;right=0;editable=1;overflow=hidden;shadow=0;" parent="DQ-XxoIGuYa2lr0NDk-D-38" vertex="1">
                    <mxGeometry width="30" height="20" as="geometry">
                        <mxRectangle width="30" height="20" as="alternateBounds"/>
                    </mxGeometry>
                </mxCell>
                <mxCell id="DQ-XxoIGuYa2lr0NDk-D-40" value="icon" style="shape=partialRectangle;connectable=0;fillColor=none;top=0;left=0;bottom=0;right=0;align=left;spacingLeft=6;overflow=hidden;shadow=0;" parent="DQ-XxoIGuYa2lr0NDk-D-38" vertex="1">
                    <mxGeometry x="30" width="70" height="20" as="geometry">
                        <mxRectangle width="70" height="20" as="alternateBounds"/>
                    </mxGeometry>
                </mxCell>
                <mxCell id="DQ-XxoIGuYa2lr0NDk-D-41" value="varchar" style="shape=partialRectangle;connectable=0;fillColor=none;top=0;left=0;bottom=0;right=0;align=left;spacingLeft=6;overflow=hidden;shadow=0;" parent="DQ-XxoIGuYa2lr0NDk-D-38" vertex="1">
                    <mxGeometry x="100" width="60" height="20" as="geometry">
                        <mxRectangle width="60" height="20" as="alternateBounds"/>
                    </mxGeometry>
                </mxCell>
                <mxCell id="DQ-XxoIGuYa2lr0NDk-D-42" value="" style="shape=partialRectangle;connectable=0;fillColor=none;top=0;left=0;bottom=0;right=0;align=left;spacingLeft=6;overflow=hidden;shadow=0;" parent="DQ-XxoIGuYa2lr0NDk-D-38" vertex="1">
                    <mxGeometry x="160" width="140" height="20" as="geometry">
                        <mxRectangle width="140" height="20" as="alternateBounds"/>
                    </mxGeometry>
                </mxCell>
                <mxCell id="DQ-XxoIGuYa2lr0NDk-D-43" value="图标" style="shape=partialRectangle;connectable=0;fillColor=none;top=0;left=0;bottom=0;right=0;align=left;spacingLeft=6;overflow=hidden;shadow=0;" parent="DQ-XxoIGuYa2lr0NDk-D-38" vertex="1">
                    <mxGeometry x="300" width="70" height="20" as="geometry">
                        <mxRectangle width="70" height="20" as="alternateBounds"/>
                    </mxGeometry>
                </mxCell>
                <mxCell id="DQ-XxoIGuYa2lr0NDk-D-44" value="" style="shape=partialRectangle;collapsible=0;dropTarget=0;pointerEvents=0;fillColor=none;top=0;left=0;bottom=0;right=0;points=[[0,0.5],[1,0.5]];portConstraint=eastwest;shadow=0;" parent="DQ-XxoIGuYa2lr0NDk-D-1" vertex="1">
                    <mxGeometry y="170" width="370" height="21" as="geometry"/>
                </mxCell>
                <mxCell id="DQ-XxoIGuYa2lr0NDk-D-45" value="N" style="shape=partialRectangle;connectable=0;fillColor=none;top=0;left=0;bottom=0;right=0;editable=1;overflow=hidden;shadow=0;" parent="DQ-XxoIGuYa2lr0NDk-D-44" vertex="1">
                    <mxGeometry width="30" height="21" as="geometry">
                        <mxRectangle width="30" height="21" as="alternateBounds"/>
                    </mxGeometry>
                </mxCell>
                <mxCell id="DQ-XxoIGuYa2lr0NDk-D-46" value="component" style="shape=partialRectangle;connectable=0;fillColor=none;top=0;left=0;bottom=0;right=0;align=left;spacingLeft=6;overflow=hidden;shadow=0;" parent="DQ-XxoIGuYa2lr0NDk-D-44" vertex="1">
                    <mxGeometry x="30" width="70" height="21" as="geometry">
                        <mxRectangle width="70" height="21" as="alternateBounds"/>
                    </mxGeometry>
                </mxCell>
                <mxCell id="DQ-XxoIGuYa2lr0NDk-D-47" value="varchar" style="shape=partialRectangle;connectable=0;fillColor=none;top=0;left=0;bottom=0;right=0;align=left;spacingLeft=6;overflow=hidden;shadow=0;" parent="DQ-XxoIGuYa2lr0NDk-D-44" vertex="1">
                    <mxGeometry x="100" width="60" height="21" as="geometry">
                        <mxRectangle width="60" height="21" as="alternateBounds"/>
                    </mxGeometry>
                </mxCell>
                <mxCell id="DQ-XxoIGuYa2lr0NDk-D-48" value="" style="shape=partialRectangle;connectable=0;fillColor=none;top=0;left=0;bottom=0;right=0;align=left;spacingLeft=6;overflow=hidden;shadow=0;" parent="DQ-XxoIGuYa2lr0NDk-D-44" vertex="1">
                    <mxGeometry x="160" width="140" height="21" as="geometry">
                        <mxRectangle width="140" height="21" as="alternateBounds"/>
                    </mxGeometry>
                </mxCell>
                <mxCell id="DQ-XxoIGuYa2lr0NDk-D-49" value="组件" style="shape=partialRectangle;connectable=0;fillColor=none;top=0;left=0;bottom=0;right=0;align=left;spacingLeft=6;overflow=hidden;shadow=0;" parent="DQ-XxoIGuYa2lr0NDk-D-44" vertex="1">
                    <mxGeometry x="300" width="70" height="21" as="geometry">
                        <mxRectangle width="70" height="21" as="alternateBounds"/>
                    </mxGeometry>
                </mxCell>
                <mxCell id="DQ-XxoIGuYa2lr0NDk-D-50" value="" style="shape=partialRectangle;collapsible=0;dropTarget=0;pointerEvents=0;fillColor=none;top=0;left=0;bottom=0;right=0;points=[[0,0.5],[1,0.5]];portConstraint=eastwest;shadow=0;" parent="DQ-XxoIGuYa2lr0NDk-D-1" vertex="1">
                    <mxGeometry y="191" width="370" height="21" as="geometry"/>
                </mxCell>
                <mxCell id="DQ-XxoIGuYa2lr0NDk-D-51" value="U" style="shape=partialRectangle;connectable=0;fillColor=none;top=0;left=0;bottom=0;right=0;editable=1;overflow=hidden;shadow=0;" parent="DQ-XxoIGuYa2lr0NDk-D-50" vertex="1">
                    <mxGeometry width="30" height="21" as="geometry">
                        <mxRectangle width="30" height="21" as="alternateBounds"/>
                    </mxGeometry>
                </mxCell>
                <mxCell id="DQ-XxoIGuYa2lr0NDk-D-52" value="permission" style="shape=partialRectangle;connectable=0;fillColor=none;top=0;left=0;bottom=0;right=0;align=left;spacingLeft=6;overflow=hidden;shadow=0;" parent="DQ-XxoIGuYa2lr0NDk-D-50" vertex="1">
                    <mxGeometry x="30" width="70" height="21" as="geometry">
                        <mxRectangle width="70" height="21" as="alternateBounds"/>
                    </mxGeometry>
                </mxCell>
                <mxCell id="DQ-XxoIGuYa2lr0NDk-D-53" value="varchar" style="shape=partialRectangle;connectable=0;fillColor=none;top=0;left=0;bottom=0;right=0;align=left;spacingLeft=6;overflow=hidden;shadow=0;" parent="DQ-XxoIGuYa2lr0NDk-D-50" vertex="1">
                    <mxGeometry x="100" width="60" height="21" as="geometry">
                        <mxRectangle width="60" height="21" as="alternateBounds"/>
                    </mxGeometry>
                </mxCell>
                <mxCell id="DQ-XxoIGuYa2lr0NDk-D-54" value="" style="shape=partialRectangle;connectable=0;fillColor=none;top=0;left=0;bottom=0;right=0;align=left;spacingLeft=6;overflow=hidden;shadow=0;" parent="DQ-XxoIGuYa2lr0NDk-D-50" vertex="1">
                    <mxGeometry x="160" width="140" height="21" as="geometry">
                        <mxRectangle width="140" height="21" as="alternateBounds"/>
                    </mxGeometry>
                </mxCell>
                <mxCell id="DQ-XxoIGuYa2lr0NDk-D-55" value="权限标识" style="shape=partialRectangle;connectable=0;fillColor=none;top=0;left=0;bottom=0;right=0;align=left;spacingLeft=6;overflow=hidden;shadow=0;" parent="DQ-XxoIGuYa2lr0NDk-D-50" vertex="1">
                    <mxGeometry x="300" width="70" height="21" as="geometry">
                        <mxRectangle width="70" height="21" as="alternateBounds"/>
                    </mxGeometry>
                </mxCell>
                <mxCell id="DQ-XxoIGuYa2lr0NDk-D-56" value="" style="shape=partialRectangle;collapsible=0;dropTarget=0;pointerEvents=0;fillColor=none;top=0;left=0;bottom=0;right=0;points=[[0,0.5],[1,0.5]];portConstraint=eastwest;shadow=0;" parent="DQ-XxoIGuYa2lr0NDk-D-1" vertex="1">
                    <mxGeometry y="212" width="370" height="22" as="geometry"/>
                </mxCell>
                <mxCell id="DQ-XxoIGuYa2lr0NDk-D-57" value="" style="shape=partialRectangle;connectable=0;fillColor=none;top=0;left=0;bottom=0;right=0;editable=1;overflow=hidden;shadow=0;" parent="DQ-XxoIGuYa2lr0NDk-D-56" vertex="1">
                    <mxGeometry width="30" height="22" as="geometry">
                        <mxRectangle width="30" height="22" as="alternateBounds"/>
                    </mxGeometry>
                </mxCell>
                <mxCell id="DQ-XxoIGuYa2lr0NDk-D-58" value="_lft" style="shape=partialRectangle;connectable=0;fillColor=none;top=0;left=0;bottom=0;right=0;align=left;spacingLeft=6;overflow=hidden;shadow=0;" parent="DQ-XxoIGuYa2lr0NDk-D-56" vertex="1">
                    <mxGeometry x="30" width="70" height="22" as="geometry">
                        <mxRectangle width="70" height="22" as="alternateBounds"/>
                    </mxGeometry>
                </mxCell>
                <mxCell id="DQ-XxoIGuYa2lr0NDk-D-59" value="varchar" style="shape=partialRectangle;connectable=0;fillColor=none;top=0;left=0;bottom=0;right=0;align=left;spacingLeft=6;overflow=hidden;shadow=0;" parent="DQ-XxoIGuYa2lr0NDk-D-56" vertex="1">
                    <mxGeometry x="100" width="60" height="22" as="geometry">
                        <mxRectangle width="60" height="22" as="alternateBounds"/>
                    </mxGeometry>
                </mxCell>
                <mxCell id="DQ-XxoIGuYa2lr0NDk-D-60" value="" style="shape=partialRectangle;connectable=0;fillColor=none;top=0;left=0;bottom=0;right=0;align=left;spacingLeft=6;overflow=hidden;shadow=0;" parent="DQ-XxoIGuYa2lr0NDk-D-56" vertex="1">
                    <mxGeometry x="160" width="140" height="22" as="geometry">
                        <mxRectangle width="140" height="22" as="alternateBounds"/>
                    </mxGeometry>
                </mxCell>
                <mxCell id="DQ-XxoIGuYa2lr0NDk-D-61" value="" style="shape=partialRectangle;connectable=0;fillColor=none;top=0;left=0;bottom=0;right=0;align=left;spacingLeft=6;overflow=hidden;shadow=0;" parent="DQ-XxoIGuYa2lr0NDk-D-56" vertex="1">
                    <mxGeometry x="300" width="70" height="22" as="geometry">
                        <mxRectangle width="70" height="22" as="alternateBounds"/>
                    </mxGeometry>
                </mxCell>
                <mxCell id="DQ-XxoIGuYa2lr0NDk-D-62" value="" style="shape=partialRectangle;collapsible=0;dropTarget=0;pointerEvents=0;fillColor=none;top=0;left=0;bottom=0;right=0;points=[[0,0.5],[1,0.5]];portConstraint=eastwest;shadow=0;" parent="DQ-XxoIGuYa2lr0NDk-D-1" vertex="1">
                    <mxGeometry y="234" width="370" height="21" as="geometry"/>
                </mxCell>
                <mxCell id="DQ-XxoIGuYa2lr0NDk-D-63" value="" style="shape=partialRectangle;connectable=0;fillColor=none;top=0;left=0;bottom=0;right=0;editable=1;overflow=hidden;shadow=0;" parent="DQ-XxoIGuYa2lr0NDk-D-62" vertex="1">
                    <mxGeometry width="30" height="21" as="geometry">
                        <mxRectangle width="30" height="21" as="alternateBounds"/>
                    </mxGeometry>
                </mxCell>
                <mxCell id="DQ-XxoIGuYa2lr0NDk-D-64" value="_rgt" style="shape=partialRectangle;connectable=0;fillColor=none;top=0;left=0;bottom=0;right=0;align=left;spacingLeft=6;overflow=hidden;shadow=0;" parent="DQ-XxoIGuYa2lr0NDk-D-62" vertex="1">
                    <mxGeometry x="30" width="70" height="21" as="geometry">
                        <mxRectangle width="70" height="21" as="alternateBounds"/>
                    </mxGeometry>
                </mxCell>
                <mxCell id="DQ-XxoIGuYa2lr0NDk-D-65" value="varchar" style="shape=partialRectangle;connectable=0;fillColor=none;top=0;left=0;bottom=0;right=0;align=left;spacingLeft=6;overflow=hidden;shadow=0;" parent="DQ-XxoIGuYa2lr0NDk-D-62" vertex="1">
                    <mxGeometry x="100" width="60" height="21" as="geometry">
                        <mxRectangle width="60" height="21" as="alternateBounds"/>
                    </mxGeometry>
                </mxCell>
                <mxCell id="DQ-XxoIGuYa2lr0NDk-D-66" value="" style="shape=partialRectangle;connectable=0;fillColor=none;top=0;left=0;bottom=0;right=0;align=left;spacingLeft=6;overflow=hidden;shadow=0;" parent="DQ-XxoIGuYa2lr0NDk-D-62" vertex="1">
                    <mxGeometry x="160" width="140" height="21" as="geometry">
                        <mxRectangle width="140" height="21" as="alternateBounds"/>
                    </mxGeometry>
                </mxCell>
                <mxCell id="DQ-XxoIGuYa2lr0NDk-D-67" value="" style="shape=partialRectangle;connectable=0;fillColor=none;top=0;left=0;bottom=0;right=0;align=left;spacingLeft=6;overflow=hidden;shadow=0;" parent="DQ-XxoIGuYa2lr0NDk-D-62" vertex="1">
                    <mxGeometry x="300" width="70" height="21" as="geometry">
                        <mxRectangle width="70" height="21" as="alternateBounds"/>
                    </mxGeometry>
                </mxCell>
                <mxCell id="DQ-XxoIGuYa2lr0NDk-D-68" value="" style="shape=partialRectangle;collapsible=0;dropTarget=0;pointerEvents=0;fillColor=none;top=0;left=0;bottom=0;right=0;points=[[0,0.5],[1,0.5]];portConstraint=eastwest;shadow=0;" parent="DQ-XxoIGuYa2lr0NDk-D-1" vertex="1">
                    <mxGeometry y="255" width="370" height="20" as="geometry"/>
                </mxCell>
                <mxCell id="DQ-XxoIGuYa2lr0NDk-D-69" value="" style="shape=partialRectangle;connectable=0;fillColor=none;top=0;left=0;bottom=0;right=0;editable=1;overflow=hidden;shadow=0;" parent="DQ-XxoIGuYa2lr0NDk-D-68" vertex="1">
                    <mxGeometry width="30" height="20" as="geometry">
                        <mxRectangle width="30" height="20" as="alternateBounds"/>
                    </mxGeometry>
                </mxCell>
                <mxCell id="DQ-XxoIGuYa2lr0NDk-D-70" value="affix" style="shape=partialRectangle;connectable=0;fillColor=none;top=0;left=0;bottom=0;right=0;align=left;spacingLeft=6;overflow=hidden;shadow=0;" parent="DQ-XxoIGuYa2lr0NDk-D-68" vertex="1">
                    <mxGeometry x="30" width="70" height="20" as="geometry">
                        <mxRectangle width="70" height="20" as="alternateBounds"/>
                    </mxGeometry>
                </mxCell>
                <mxCell id="DQ-XxoIGuYa2lr0NDk-D-71" value="varchar" style="shape=partialRectangle;connectable=0;fillColor=none;top=0;left=0;bottom=0;right=0;align=left;spacingLeft=6;overflow=hidden;shadow=0;" parent="DQ-XxoIGuYa2lr0NDk-D-68" vertex="1">
                    <mxGeometry x="100" width="60" height="20" as="geometry">
                        <mxRectangle width="60" height="20" as="alternateBounds"/>
                    </mxGeometry>
                </mxCell>
                <mxCell id="DQ-XxoIGuYa2lr0NDk-D-72" value="unsigned, d(0)" style="shape=partialRectangle;connectable=0;fillColor=none;top=0;left=0;bottom=0;right=0;align=left;spacingLeft=6;overflow=hidden;shadow=0;" parent="DQ-XxoIGuYa2lr0NDk-D-68" vertex="1">
                    <mxGeometry x="160" width="140" height="20" as="geometry">
                        <mxRectangle width="140" height="20" as="alternateBounds"/>
                    </mxGeometry>
                </mxCell>
                <mxCell id="DQ-XxoIGuYa2lr0NDk-D-73" value="固钉 0否 1是" style="shape=partialRectangle;connectable=0;fillColor=none;top=0;left=0;bottom=0;right=0;align=left;spacingLeft=6;overflow=hidden;shadow=0;" parent="DQ-XxoIGuYa2lr0NDk-D-68" vertex="1">
                    <mxGeometry x="300" width="70" height="20" as="geometry">
                        <mxRectangle width="70" height="20" as="alternateBounds"/>
                    </mxGeometry>
                </mxCell>
                <mxCell id="DQ-XxoIGuYa2lr0NDk-D-74" value="" style="shape=partialRectangle;collapsible=0;dropTarget=0;pointerEvents=0;fillColor=none;top=0;left=0;bottom=0;right=0;points=[[0,0.5],[1,0.5]];portConstraint=eastwest;shadow=0;" parent="DQ-XxoIGuYa2lr0NDk-D-1" vertex="1">
                    <mxGeometry y="275" width="370" height="20" as="geometry"/>
                </mxCell>
                <mxCell id="DQ-XxoIGuYa2lr0NDk-D-75" value="" style="shape=partialRectangle;connectable=0;fillColor=none;top=0;left=0;bottom=0;right=0;editable=1;overflow=hidden;shadow=0;" parent="DQ-XxoIGuYa2lr0NDk-D-74" vertex="1">
                    <mxGeometry width="30" height="20" as="geometry">
                        <mxRectangle width="30" height="20" as="alternateBounds"/>
                    </mxGeometry>
                </mxCell>
                <mxCell id="DQ-XxoIGuYa2lr0NDk-D-76" value="sort" style="shape=partialRectangle;connectable=0;fillColor=none;top=0;left=0;bottom=0;right=0;align=left;spacingLeft=6;overflow=hidden;shadow=0;" parent="DQ-XxoIGuYa2lr0NDk-D-74" vertex="1">
                    <mxGeometry x="30" width="70" height="20" as="geometry">
                        <mxRectangle width="70" height="20" as="alternateBounds"/>
                    </mxGeometry>
                </mxCell>
                <mxCell id="DQ-XxoIGuYa2lr0NDk-D-77" value="int(10)" style="shape=partialRectangle;connectable=0;fillColor=none;top=0;left=0;bottom=0;right=0;align=left;spacingLeft=6;overflow=hidden;shadow=0;" parent="DQ-XxoIGuYa2lr0NDk-D-74" vertex="1">
                    <mxGeometry x="100" width="60" height="20" as="geometry">
                        <mxRectangle width="60" height="20" as="alternateBounds"/>
                    </mxGeometry>
                </mxCell>
                <mxCell id="DQ-XxoIGuYa2lr0NDk-D-78" value="unsigned, d(0)" style="shape=partialRectangle;connectable=0;fillColor=none;top=0;left=0;bottom=0;right=0;align=left;spacingLeft=6;overflow=hidden;shadow=0;" parent="DQ-XxoIGuYa2lr0NDk-D-74" vertex="1">
                    <mxGeometry x="160" width="140" height="20" as="geometry">
                        <mxRectangle width="140" height="20" as="alternateBounds"/>
                    </mxGeometry>
                </mxCell>
                <mxCell id="DQ-XxoIGuYa2lr0NDk-D-79" value="排序" style="shape=partialRectangle;connectable=0;fillColor=none;top=0;left=0;bottom=0;right=0;align=left;spacingLeft=6;overflow=hidden;shadow=0;" parent="DQ-XxoIGuYa2lr0NDk-D-74" vertex="1">
                    <mxGeometry x="300" width="70" height="20" as="geometry">
                        <mxRectangle width="70" height="20" as="alternateBounds"/>
                    </mxGeometry>
                </mxCell>
                <mxCell id="DQ-XxoIGuYa2lr0NDk-D-80" value="" style="shape=partialRectangle;collapsible=0;dropTarget=0;pointerEvents=0;fillColor=none;top=0;left=0;bottom=0;right=0;points=[[0,0.5],[1,0.5]];portConstraint=eastwest;shadow=0;" parent="DQ-XxoIGuYa2lr0NDk-D-1" vertex="1">
                    <mxGeometry y="295" width="370" height="20" as="geometry"/>
                </mxCell>
                <mxCell id="DQ-XxoIGuYa2lr0NDk-D-81" value="" style="shape=partialRectangle;connectable=0;fillColor=none;top=0;left=0;bottom=0;right=0;editable=1;overflow=hidden;shadow=0;" parent="DQ-XxoIGuYa2lr0NDk-D-80" vertex="1">
                    <mxGeometry width="30" height="20" as="geometry">
                        <mxRectangle width="30" height="20" as="alternateBounds"/>
                    </mxGeometry>
                </mxCell>
                <mxCell id="DQ-XxoIGuYa2lr0NDk-D-82" value="status" style="shape=partialRectangle;connectable=0;fillColor=none;top=0;left=0;bottom=0;right=0;align=left;spacingLeft=6;overflow=hidden;shadow=0;" parent="DQ-XxoIGuYa2lr0NDk-D-80" vertex="1">
                    <mxGeometry x="30" width="70" height="20" as="geometry">
                        <mxRectangle width="70" height="20" as="alternateBounds"/>
                    </mxGeometry>
                </mxCell>
                <mxCell id="DQ-XxoIGuYa2lr0NDk-D-83" value="tinyint(1)" style="shape=partialRectangle;connectable=0;fillColor=none;top=0;left=0;bottom=0;right=0;align=left;spacingLeft=6;overflow=hidden;shadow=0;" parent="DQ-XxoIGuYa2lr0NDk-D-80" vertex="1">
                    <mxGeometry x="100" width="60" height="20" as="geometry">
                        <mxRectangle width="60" height="20" as="alternateBounds"/>
                    </mxGeometry>
                </mxCell>
                <mxCell id="DQ-XxoIGuYa2lr0NDk-D-84" value="unsigned, d(1)" style="shape=partialRectangle;connectable=0;fillColor=none;top=0;left=0;bottom=0;right=0;align=left;spacingLeft=6;overflow=hidden;shadow=0;" parent="DQ-XxoIGuYa2lr0NDk-D-80" vertex="1">
                    <mxGeometry x="160" width="140" height="20" as="geometry">
                        <mxRectangle width="140" height="20" as="alternateBounds"/>
                    </mxGeometry>
                </mxCell>
                <mxCell id="DQ-XxoIGuYa2lr0NDk-D-85" value="状态 0禁用 1启用" style="shape=partialRectangle;connectable=0;fillColor=none;top=0;left=0;bottom=0;right=0;align=left;spacingLeft=6;overflow=hidden;shadow=0;" parent="DQ-XxoIGuYa2lr0NDk-D-80" vertex="1">
                    <mxGeometry x="300" width="70" height="20" as="geometry">
                        <mxRectangle width="70" height="20" as="alternateBounds"/>
                    </mxGeometry>
                </mxCell>
                <mxCell id="DQ-XxoIGuYa2lr0NDk-D-86" value="" style="shape=partialRectangle;collapsible=0;dropTarget=0;pointerEvents=0;fillColor=none;top=0;left=0;bottom=0;right=0;points=[[0,0.5],[1,0.5]];portConstraint=eastwest;shadow=0;" parent="DQ-XxoIGuYa2lr0NDk-D-1" vertex="1">
                    <mxGeometry y="315" width="370" height="20" as="geometry"/>
                </mxCell>
                <mxCell id="DQ-XxoIGuYa2lr0NDk-D-87" value="" style="shape=partialRectangle;connectable=0;fillColor=none;top=0;left=0;bottom=0;right=0;editable=1;overflow=hidden;shadow=0;" parent="DQ-XxoIGuYa2lr0NDk-D-86" vertex="1">
                    <mxGeometry width="30" height="20" as="geometry">
                        <mxRectangle width="30" height="20" as="alternateBounds"/>
                    </mxGeometry>
                </mxCell>
                <mxCell id="DQ-XxoIGuYa2lr0NDk-D-88" value="type" style="shape=partialRectangle;connectable=0;fillColor=none;top=0;left=0;bottom=0;right=0;align=left;spacingLeft=6;overflow=hidden;shadow=0;" parent="DQ-XxoIGuYa2lr0NDk-D-86" vertex="1">
                    <mxGeometry x="30" width="70" height="20" as="geometry">
                        <mxRectangle width="70" height="20" as="alternateBounds"/>
                    </mxGeometry>
                </mxCell>
                <mxCell id="DQ-XxoIGuYa2lr0NDk-D-89" value="tinyint(1)" style="shape=partialRectangle;connectable=0;fillColor=none;top=0;left=0;bottom=0;right=0;align=left;spacingLeft=6;overflow=hidden;shadow=0;" parent="DQ-XxoIGuYa2lr0NDk-D-86" vertex="1">
                    <mxGeometry x="100" width="60" height="20" as="geometry">
                        <mxRectangle width="60" height="20" as="alternateBounds"/>
                    </mxGeometry>
                </mxCell>
                <mxCell id="DQ-XxoIGuYa2lr0NDk-D-90" value="unsigned, d(0)" style="shape=partialRectangle;connectable=0;fillColor=none;top=0;left=0;bottom=0;right=0;align=left;spacingLeft=6;overflow=hidden;shadow=0;" parent="DQ-XxoIGuYa2lr0NDk-D-86" vertex="1">
                    <mxGeometry x="160" width="140" height="20" as="geometry">
                        <mxRectangle width="140" height="20" as="alternateBounds"/>
                    </mxGeometry>
                </mxCell>
                <mxCell id="DQ-XxoIGuYa2lr0NDk-D-91" value="类型 0菜单 1按钮" style="shape=partialRectangle;connectable=0;fillColor=none;top=0;left=0;bottom=0;right=0;align=left;spacingLeft=6;overflow=hidden;shadow=0;" parent="DQ-XxoIGuYa2lr0NDk-D-86" vertex="1">
                    <mxGeometry x="300" width="70" height="20" as="geometry">
                        <mxRectangle width="70" height="20" as="alternateBounds"/>
                    </mxGeometry>
                </mxCell>
                <mxCell id="DQ-XxoIGuYa2lr0NDk-D-92" value="" style="shape=partialRectangle;collapsible=0;dropTarget=0;pointerEvents=0;fillColor=none;top=0;left=0;bottom=0;right=0;points=[[0,0.5],[1,0.5]];portConstraint=eastwest;perimeterSpacing=0;shadow=0;" parent="DQ-XxoIGuYa2lr0NDk-D-1" vertex="1">
                    <mxGeometry y="335" width="370" height="20" as="geometry"/>
                </mxCell>
                <mxCell id="DQ-XxoIGuYa2lr0NDk-D-93" value="" style="shape=partialRectangle;connectable=0;fillColor=none;top=0;left=0;bottom=0;right=0;editable=1;overflow=hidden;shadow=0;" parent="DQ-XxoIGuYa2lr0NDk-D-92" vertex="1">
                    <mxGeometry width="30" height="20" as="geometry">
                        <mxRectangle width="30" height="20" as="alternateBounds"/>
                    </mxGeometry>
                </mxCell>
                <mxCell id="DQ-XxoIGuYa2lr0NDk-D-94" value="created_at" style="shape=partialRectangle;connectable=0;fillColor=none;top=0;left=0;bottom=0;right=0;align=left;spacingLeft=6;overflow=hidden;shadow=0;" parent="DQ-XxoIGuYa2lr0NDk-D-92" vertex="1">
                    <mxGeometry x="30" width="70" height="20" as="geometry">
                        <mxRectangle width="70" height="20" as="alternateBounds"/>
                    </mxGeometry>
                </mxCell>
                <mxCell id="DQ-XxoIGuYa2lr0NDk-D-95" value="datatime" style="shape=partialRectangle;connectable=0;fillColor=none;top=0;left=0;bottom=0;right=0;align=left;spacingLeft=6;overflow=hidden;shadow=0;" parent="DQ-XxoIGuYa2lr0NDk-D-92" vertex="1">
                    <mxGeometry x="100" width="60" height="20" as="geometry">
                        <mxRectangle width="60" height="20" as="alternateBounds"/>
                    </mxGeometry>
                </mxCell>
                <mxCell id="DQ-XxoIGuYa2lr0NDk-D-96" value="" style="shape=partialRectangle;connectable=0;fillColor=none;top=0;left=0;bottom=0;right=0;align=left;spacingLeft=6;overflow=hidden;shadow=0;" parent="DQ-XxoIGuYa2lr0NDk-D-92" vertex="1">
                    <mxGeometry x="160" width="140" height="20" as="geometry">
                        <mxRectangle width="140" height="20" as="alternateBounds"/>
                    </mxGeometry>
                </mxCell>
                <mxCell id="DQ-XxoIGuYa2lr0NDk-D-97" style="shape=partialRectangle;connectable=0;fillColor=none;top=0;left=0;bottom=0;right=0;align=left;spacingLeft=6;overflow=hidden;shadow=0;" parent="DQ-XxoIGuYa2lr0NDk-D-92" vertex="1">
                    <mxGeometry x="300" width="70" height="20" as="geometry">
                        <mxRectangle width="70" height="20" as="alternateBounds"/>
                    </mxGeometry>
                </mxCell>
                <mxCell id="DQ-XxoIGuYa2lr0NDk-D-98" value="" style="shape=partialRectangle;collapsible=0;dropTarget=0;pointerEvents=0;fillColor=none;top=0;left=0;bottom=0;right=0;points=[[0,0.5],[1,0.5]];portConstraint=eastwest;shadow=0;" parent="DQ-XxoIGuYa2lr0NDk-D-1" vertex="1">
                    <mxGeometry y="355" width="370" height="20" as="geometry"/>
                </mxCell>
                <mxCell id="DQ-XxoIGuYa2lr0NDk-D-99" value="" style="shape=partialRectangle;connectable=0;fillColor=none;top=0;left=0;bottom=0;right=0;editable=1;overflow=hidden;shadow=0;" parent="DQ-XxoIGuYa2lr0NDk-D-98" vertex="1">
                    <mxGeometry width="30" height="20" as="geometry">
                        <mxRectangle width="30" height="20" as="alternateBounds"/>
                    </mxGeometry>
                </mxCell>
                <mxCell id="DQ-XxoIGuYa2lr0NDk-D-100" value="updated_at" style="shape=partialRectangle;connectable=0;fillColor=none;top=0;left=0;bottom=0;right=0;align=left;spacingLeft=6;overflow=hidden;shadow=0;" parent="DQ-XxoIGuYa2lr0NDk-D-98" vertex="1">
                    <mxGeometry x="30" width="70" height="20" as="geometry">
                        <mxRectangle width="70" height="20" as="alternateBounds"/>
                    </mxGeometry>
                </mxCell>
                <mxCell id="DQ-XxoIGuYa2lr0NDk-D-101" value="datatime" style="shape=partialRectangle;connectable=0;fillColor=none;top=0;left=0;bottom=0;right=0;align=left;spacingLeft=6;overflow=hidden;shadow=0;" parent="DQ-XxoIGuYa2lr0NDk-D-98" vertex="1">
                    <mxGeometry x="100" width="60" height="20" as="geometry">
                        <mxRectangle width="60" height="20" as="alternateBounds"/>
                    </mxGeometry>
                </mxCell>
                <mxCell id="DQ-XxoIGuYa2lr0NDk-D-102" value="" style="shape=partialRectangle;connectable=0;fillColor=none;top=0;left=0;bottom=0;right=0;align=left;spacingLeft=6;overflow=hidden;shadow=0;" parent="DQ-XxoIGuYa2lr0NDk-D-98" vertex="1">
                    <mxGeometry x="160" width="140" height="20" as="geometry">
                        <mxRectangle width="140" height="20" as="alternateBounds"/>
                    </mxGeometry>
                </mxCell>
                <mxCell id="DQ-XxoIGuYa2lr0NDk-D-103" style="shape=partialRectangle;connectable=0;fillColor=none;top=0;left=0;bottom=0;right=0;align=left;spacingLeft=6;overflow=hidden;shadow=0;" parent="DQ-XxoIGuYa2lr0NDk-D-98" vertex="1">
                    <mxGeometry x="300" width="70" height="20" as="geometry">
                        <mxRectangle width="70" height="20" as="alternateBounds"/>
                    </mxGeometry>
                </mxCell>
                <mxCell id="DQ-XxoIGuYa2lr0NDk-D-104" value="admins(管理员表)" style="shape=table;startSize=30;container=1;collapsible=1;childLayout=tableLayout;fixedRows=1;rowLines=0;fontStyle=1;align=center;resizeLast=1;fillColor=#FFFFFF;shadow=0;" parent="1" vertex="1">
                    <mxGeometry x="500" y="-290" width="420" height="350" as="geometry">
                        <mxRectangle x="610" y="380" width="60" height="30" as="alternateBounds"/>
                    </mxGeometry>
                </mxCell>
                <mxCell id="DQ-XxoIGuYa2lr0NDk-D-105" style="shape=partialRectangle;collapsible=0;dropTarget=0;pointerEvents=0;fillColor=none;top=0;left=0;bottom=0;right=0;points=[[0,0.5],[1,0.5]];portConstraint=eastwest;shadow=0;" parent="DQ-XxoIGuYa2lr0NDk-D-104" vertex="1">
                    <mxGeometry y="30" width="420" height="20" as="geometry"/>
                </mxCell>
                <mxCell id="DQ-XxoIGuYa2lr0NDk-D-106" value="PK" style="shape=partialRectangle;connectable=0;fillColor=none;top=0;left=0;bottom=0;right=0;editable=1;overflow=hidden;shadow=0;" parent="DQ-XxoIGuYa2lr0NDk-D-105" vertex="1">
                    <mxGeometry width="40" height="20" as="geometry">
                        <mxRectangle width="40" height="20" as="alternateBounds"/>
                    </mxGeometry>
                </mxCell>
                <mxCell id="DQ-XxoIGuYa2lr0NDk-D-107" value="id" style="shape=partialRectangle;connectable=0;fillColor=none;top=0;left=0;bottom=0;right=0;align=left;spacingLeft=6;overflow=hidden;shadow=0;" parent="DQ-XxoIGuYa2lr0NDk-D-105" vertex="1">
                    <mxGeometry x="40" width="70" height="20" as="geometry">
                        <mxRectangle width="70" height="20" as="alternateBounds"/>
                    </mxGeometry>
                </mxCell>
                <mxCell id="DQ-XxoIGuYa2lr0NDk-D-108" value="int" style="shape=partialRectangle;connectable=0;fillColor=none;top=0;left=0;bottom=0;right=0;align=left;spacingLeft=6;overflow=hidden;shadow=0;" parent="DQ-XxoIGuYa2lr0NDk-D-105" vertex="1">
                    <mxGeometry x="110" width="80" height="20" as="geometry">
                        <mxRectangle width="80" height="20" as="alternateBounds"/>
                    </mxGeometry>
                </mxCell>
                <mxCell id="DQ-XxoIGuYa2lr0NDk-D-109" value="unsigned" style="shape=partialRectangle;connectable=0;fillColor=none;top=0;left=0;bottom=0;right=0;align=left;spacingLeft=6;overflow=hidden;shadow=0;" parent="DQ-XxoIGuYa2lr0NDk-D-105" vertex="1">
                    <mxGeometry x="190" width="120" height="20" as="geometry">
                        <mxRectangle width="120" height="20" as="alternateBounds"/>
                    </mxGeometry>
                </mxCell>
                <mxCell id="DQ-XxoIGuYa2lr0NDk-D-110" value="主键" style="shape=partialRectangle;connectable=0;fillColor=none;top=0;left=0;bottom=0;right=0;align=left;spacingLeft=6;overflow=hidden;shadow=0;" parent="DQ-XxoIGuYa2lr0NDk-D-105" vertex="1">
                    <mxGeometry x="310" width="110" height="20" as="geometry">
                        <mxRectangle width="110" height="20" as="alternateBounds"/>
                    </mxGeometry>
                </mxCell>
                <mxCell id="DQ-XxoIGuYa2lr0NDk-D-111" value="" style="shape=partialRectangle;collapsible=0;dropTarget=0;pointerEvents=0;fillColor=none;top=0;left=0;bottom=0;right=0;points=[[0,0.5],[1,0.5]];portConstraint=eastwest;shadow=0;" parent="DQ-XxoIGuYa2lr0NDk-D-104" vertex="1">
                    <mxGeometry y="50" width="420" height="20" as="geometry"/>
                </mxCell>
                <mxCell id="DQ-XxoIGuYa2lr0NDk-D-112" value="U" style="shape=partialRectangle;connectable=0;fillColor=none;top=0;left=0;bottom=0;right=0;editable=1;overflow=hidden;shadow=0;" parent="DQ-XxoIGuYa2lr0NDk-D-111" vertex="1">
                    <mxGeometry width="40" height="20" as="geometry">
                        <mxRectangle width="40" height="20" as="alternateBounds"/>
                    </mxGeometry>
                </mxCell>
                <mxCell id="DQ-XxoIGuYa2lr0NDk-D-113" value="username&#10;" style="shape=partialRectangle;connectable=0;fillColor=none;top=0;left=0;bottom=0;right=0;align=left;spacingLeft=6;overflow=hidden;shadow=0;" parent="DQ-XxoIGuYa2lr0NDk-D-111" vertex="1">
                    <mxGeometry x="40" width="70" height="20" as="geometry">
                        <mxRectangle width="70" height="20" as="alternateBounds"/>
                    </mxGeometry>
                </mxCell>
                <mxCell id="DQ-XxoIGuYa2lr0NDk-D-114" value="varchar" style="shape=partialRectangle;connectable=0;fillColor=none;top=0;left=0;bottom=0;right=0;align=left;spacingLeft=6;overflow=hidden;shadow=0;" parent="DQ-XxoIGuYa2lr0NDk-D-111" vertex="1">
                    <mxGeometry x="110" width="80" height="20" as="geometry">
                        <mxRectangle width="80" height="20" as="alternateBounds"/>
                    </mxGeometry>
                </mxCell>
                <mxCell id="DQ-XxoIGuYa2lr0NDk-D-115" style="shape=partialRectangle;connectable=0;fillColor=none;top=0;left=0;bottom=0;right=0;align=left;spacingLeft=6;overflow=hidden;shadow=0;" parent="DQ-XxoIGuYa2lr0NDk-D-111" vertex="1">
                    <mxGeometry x="190" width="120" height="20" as="geometry">
                        <mxRectangle width="120" height="20" as="alternateBounds"/>
                    </mxGeometry>
                </mxCell>
                <mxCell id="DQ-XxoIGuYa2lr0NDk-D-116" value="用户名" style="shape=partialRectangle;connectable=0;fillColor=none;top=0;left=0;bottom=0;right=0;align=left;spacingLeft=6;overflow=hidden;shadow=0;" parent="DQ-XxoIGuYa2lr0NDk-D-111" vertex="1">
                    <mxGeometry x="310" width="110" height="20" as="geometry">
                        <mxRectangle width="110" height="20" as="alternateBounds"/>
                    </mxGeometry>
                </mxCell>
                <mxCell id="DQ-XxoIGuYa2lr0NDk-D-117" value="" style="shape=partialRectangle;collapsible=0;dropTarget=0;pointerEvents=0;fillColor=none;top=0;left=0;bottom=0;right=0;points=[[0,0.5],[1,0.5]];portConstraint=eastwest;shadow=0;" parent="DQ-XxoIGuYa2lr0NDk-D-104" vertex="1">
                    <mxGeometry y="70" width="420" height="20" as="geometry"/>
                </mxCell>
                <mxCell id="DQ-XxoIGuYa2lr0NDk-D-118" value="" style="shape=partialRectangle;connectable=0;fillColor=none;top=0;left=0;bottom=0;right=0;editable=1;overflow=hidden;shadow=0;" parent="DQ-XxoIGuYa2lr0NDk-D-117" vertex="1">
                    <mxGeometry width="40" height="20" as="geometry">
                        <mxRectangle width="40" height="20" as="alternateBounds"/>
                    </mxGeometry>
                </mxCell>
                <mxCell id="DQ-XxoIGuYa2lr0NDk-D-119" value="password" style="shape=partialRectangle;connectable=0;fillColor=none;top=0;left=0;bottom=0;right=0;align=left;spacingLeft=6;overflow=hidden;shadow=0;" parent="DQ-XxoIGuYa2lr0NDk-D-117" vertex="1">
                    <mxGeometry x="40" width="70" height="20" as="geometry">
                        <mxRectangle width="70" height="20" as="alternateBounds"/>
                    </mxGeometry>
                </mxCell>
                <mxCell id="DQ-XxoIGuYa2lr0NDk-D-120" value="varchar" style="shape=partialRectangle;connectable=0;fillColor=none;top=0;left=0;bottom=0;right=0;align=left;spacingLeft=6;overflow=hidden;shadow=0;" parent="DQ-XxoIGuYa2lr0NDk-D-117" vertex="1">
                    <mxGeometry x="110" width="80" height="20" as="geometry">
                        <mxRectangle width="80" height="20" as="alternateBounds"/>
                    </mxGeometry>
                </mxCell>
                <mxCell id="DQ-XxoIGuYa2lr0NDk-D-121" style="shape=partialRectangle;connectable=0;fillColor=none;top=0;left=0;bottom=0;right=0;align=left;spacingLeft=6;overflow=hidden;shadow=0;" parent="DQ-XxoIGuYa2lr0NDk-D-117" vertex="1">
                    <mxGeometry x="190" width="120" height="20" as="geometry">
                        <mxRectangle width="120" height="20" as="alternateBounds"/>
                    </mxGeometry>
                </mxCell>
                <mxCell id="DQ-XxoIGuYa2lr0NDk-D-122" value="密码" style="shape=partialRectangle;connectable=0;fillColor=none;top=0;left=0;bottom=0;right=0;align=left;spacingLeft=6;overflow=hidden;shadow=0;" parent="DQ-XxoIGuYa2lr0NDk-D-117" vertex="1">
                    <mxGeometry x="310" width="110" height="20" as="geometry">
                        <mxRectangle width="110" height="20" as="alternateBounds"/>
                    </mxGeometry>
                </mxCell>
                <mxCell id="DQ-XxoIGuYa2lr0NDk-D-123" value="" style="shape=partialRectangle;collapsible=0;dropTarget=0;pointerEvents=0;fillColor=none;top=0;left=0;bottom=0;right=0;points=[[0,0.5],[1,0.5]];portConstraint=eastwest;perimeterSpacing=0;shadow=0;" parent="DQ-XxoIGuYa2lr0NDk-D-104" vertex="1">
                    <mxGeometry y="90" width="420" height="20" as="geometry"/>
                </mxCell>
                <mxCell id="DQ-XxoIGuYa2lr0NDk-D-124" value="" style="shape=partialRectangle;connectable=0;fillColor=none;top=0;left=0;bottom=0;right=0;editable=1;overflow=hidden;shadow=0;" parent="DQ-XxoIGuYa2lr0NDk-D-123" vertex="1">
                    <mxGeometry width="40" height="20" as="geometry">
                        <mxRectangle width="40" height="20" as="alternateBounds"/>
                    </mxGeometry>
                </mxCell>
                <mxCell id="DQ-XxoIGuYa2lr0NDk-D-125" value="gender" style="shape=partialRectangle;connectable=0;fillColor=none;top=0;left=0;bottom=0;right=0;align=left;spacingLeft=6;overflow=hidden;shadow=0;" parent="DQ-XxoIGuYa2lr0NDk-D-123" vertex="1">
                    <mxGeometry x="40" width="70" height="20" as="geometry">
                        <mxRectangle width="70" height="20" as="alternateBounds"/>
                    </mxGeometry>
                </mxCell>
                <mxCell id="DQ-XxoIGuYa2lr0NDk-D-126" value="tinyint" style="shape=partialRectangle;connectable=0;fillColor=none;top=0;left=0;bottom=0;right=0;align=left;spacingLeft=6;overflow=hidden;shadow=0;" parent="DQ-XxoIGuYa2lr0NDk-D-123" vertex="1">
                    <mxGeometry x="110" width="80" height="20" as="geometry">
                        <mxRectangle width="80" height="20" as="alternateBounds"/>
                    </mxGeometry>
                </mxCell>
                <mxCell id="DQ-XxoIGuYa2lr0NDk-D-127" value="unsigned, default(0)" style="shape=partialRectangle;connectable=0;fillColor=none;top=0;left=0;bottom=0;right=0;align=left;spacingLeft=6;overflow=hidden;shadow=0;" parent="DQ-XxoIGuYa2lr0NDk-D-123" vertex="1">
                    <mxGeometry x="190" width="120" height="20" as="geometry">
                        <mxRectangle width="120" height="20" as="alternateBounds"/>
                    </mxGeometry>
                </mxCell>
                <mxCell id="DQ-XxoIGuYa2lr0NDk-D-128" value="性别 0未知 1男 2女" style="shape=partialRectangle;connectable=0;fillColor=none;top=0;left=0;bottom=0;right=0;align=left;spacingLeft=6;overflow=hidden;shadow=0;" parent="DQ-XxoIGuYa2lr0NDk-D-123" vertex="1">
                    <mxGeometry x="310" width="110" height="20" as="geometry">
                        <mxRectangle width="110" height="20" as="alternateBounds"/>
                    </mxGeometry>
                </mxCell>
                <mxCell id="DQ-XxoIGuYa2lr0NDk-D-129" value="" style="shape=partialRectangle;collapsible=0;dropTarget=0;pointerEvents=0;fillColor=none;top=0;left=0;bottom=0;right=0;points=[[0,0.5],[1,0.5]];portConstraint=eastwest;shadow=0;" parent="DQ-XxoIGuYa2lr0NDk-D-104" vertex="1">
                    <mxGeometry y="110" width="420" height="20" as="geometry"/>
                </mxCell>
                <mxCell id="DQ-XxoIGuYa2lr0NDk-D-130" value="N" style="shape=partialRectangle;connectable=0;fillColor=none;top=0;left=0;bottom=0;right=0;editable=1;overflow=hidden;shadow=0;" parent="DQ-XxoIGuYa2lr0NDk-D-129" vertex="1">
                    <mxGeometry width="40" height="20" as="geometry">
                        <mxRectangle width="40" height="20" as="alternateBounds"/>
                    </mxGeometry>
                </mxCell>
                <mxCell id="DQ-XxoIGuYa2lr0NDk-D-131" value="name" style="shape=partialRectangle;connectable=0;fillColor=none;top=0;left=0;bottom=0;right=0;align=left;spacingLeft=6;overflow=hidden;shadow=0;" parent="DQ-XxoIGuYa2lr0NDk-D-129" vertex="1">
                    <mxGeometry x="40" width="70" height="20" as="geometry">
                        <mxRectangle width="70" height="20" as="alternateBounds"/>
                    </mxGeometry>
                </mxCell>
                <mxCell id="DQ-XxoIGuYa2lr0NDk-D-132" value="varchar" style="shape=partialRectangle;connectable=0;fillColor=none;top=0;left=0;bottom=0;right=0;align=left;spacingLeft=6;overflow=hidden;shadow=0;" parent="DQ-XxoIGuYa2lr0NDk-D-129" vertex="1">
                    <mxGeometry x="110" width="80" height="20" as="geometry">
                        <mxRectangle width="80" height="20" as="alternateBounds"/>
                    </mxGeometry>
                </mxCell>
                <mxCell id="DQ-XxoIGuYa2lr0NDk-D-133" value="" style="shape=partialRectangle;connectable=0;fillColor=none;top=0;left=0;bottom=0;right=0;align=left;spacingLeft=6;overflow=hidden;shadow=0;" parent="DQ-XxoIGuYa2lr0NDk-D-129" vertex="1">
                    <mxGeometry x="190" width="120" height="20" as="geometry">
                        <mxRectangle width="120" height="20" as="alternateBounds"/>
                    </mxGeometry>
                </mxCell>
                <mxCell id="DQ-XxoIGuYa2lr0NDk-D-134" value="姓名" style="shape=partialRectangle;connectable=0;fillColor=none;top=0;left=0;bottom=0;right=0;align=left;spacingLeft=6;overflow=hidden;shadow=0;" parent="DQ-XxoIGuYa2lr0NDk-D-129" vertex="1">
                    <mxGeometry x="310" width="110" height="20" as="geometry">
                        <mxRectangle width="110" height="20" as="alternateBounds"/>
                    </mxGeometry>
                </mxCell>
                <mxCell id="DQ-XxoIGuYa2lr0NDk-D-135" value="" style="shape=partialRectangle;collapsible=0;dropTarget=0;pointerEvents=0;fillColor=none;top=0;left=0;bottom=0;right=0;points=[[0,0.5],[1,0.5]];portConstraint=eastwest;shadow=0;" parent="DQ-XxoIGuYa2lr0NDk-D-104" vertex="1">
                    <mxGeometry y="130" width="420" height="20" as="geometry"/>
                </mxCell>
                <mxCell id="DQ-XxoIGuYa2lr0NDk-D-136" value="N" style="shape=partialRectangle;connectable=0;fillColor=none;top=0;left=0;bottom=0;right=0;editable=1;overflow=hidden;shadow=0;" parent="DQ-XxoIGuYa2lr0NDk-D-135" vertex="1">
                    <mxGeometry width="40" height="20" as="geometry">
                        <mxRectangle width="40" height="20" as="alternateBounds"/>
                    </mxGeometry>
                </mxCell>
                <mxCell id="DQ-XxoIGuYa2lr0NDk-D-137" value="avatar" style="shape=partialRectangle;connectable=0;fillColor=none;top=0;left=0;bottom=0;right=0;align=left;spacingLeft=6;overflow=hidden;shadow=0;" parent="DQ-XxoIGuYa2lr0NDk-D-135" vertex="1">
                    <mxGeometry x="40" width="70" height="20" as="geometry">
                        <mxRectangle width="70" height="20" as="alternateBounds"/>
                    </mxGeometry>
                </mxCell>
                <mxCell id="DQ-XxoIGuYa2lr0NDk-D-138" value="varchar" style="shape=partialRectangle;connectable=0;fillColor=none;top=0;left=0;bottom=0;right=0;align=left;spacingLeft=6;overflow=hidden;shadow=0;" parent="DQ-XxoIGuYa2lr0NDk-D-135" vertex="1">
                    <mxGeometry x="110" width="80" height="20" as="geometry">
                        <mxRectangle width="80" height="20" as="alternateBounds"/>
                    </mxGeometry>
                </mxCell>
                <mxCell id="DQ-XxoIGuYa2lr0NDk-D-139" value="default(&quot;http://localhost/avatar/deault&quot;)" style="shape=partialRectangle;connectable=0;fillColor=none;top=0;left=0;bottom=0;right=0;align=left;spacingLeft=6;overflow=hidden;shadow=0;" parent="DQ-XxoIGuYa2lr0NDk-D-135" vertex="1">
                    <mxGeometry x="190" width="120" height="20" as="geometry">
                        <mxRectangle width="120" height="20" as="alternateBounds"/>
                    </mxGeometry>
                </mxCell>
                <mxCell id="DQ-XxoIGuYa2lr0NDk-D-140" value="头像" style="shape=partialRectangle;connectable=0;fillColor=none;top=0;left=0;bottom=0;right=0;align=left;spacingLeft=6;overflow=hidden;shadow=0;" parent="DQ-XxoIGuYa2lr0NDk-D-135" vertex="1">
                    <mxGeometry x="310" width="110" height="20" as="geometry">
                        <mxRectangle width="110" height="20" as="alternateBounds"/>
                    </mxGeometry>
                </mxCell>
                <mxCell id="DQ-XxoIGuYa2lr0NDk-D-141" value="" style="shape=partialRectangle;collapsible=0;dropTarget=0;pointerEvents=0;fillColor=none;top=0;left=0;bottom=0;right=0;points=[[0,0.5],[1,0.5]];portConstraint=eastwest;shadow=0;" parent="DQ-XxoIGuYa2lr0NDk-D-104" vertex="1">
                    <mxGeometry y="150" width="420" height="20" as="geometry"/>
                </mxCell>
                <mxCell id="DQ-XxoIGuYa2lr0NDk-D-142" value="N" style="shape=partialRectangle;connectable=0;fillColor=none;top=0;left=0;bottom=0;right=0;editable=1;overflow=hidden;shadow=0;" parent="DQ-XxoIGuYa2lr0NDk-D-141" vertex="1">
                    <mxGeometry width="40" height="20" as="geometry">
                        <mxRectangle width="40" height="20" as="alternateBounds"/>
                    </mxGeometry>
                </mxCell>
                <mxCell id="DQ-XxoIGuYa2lr0NDk-D-143" value="phone" style="shape=partialRectangle;connectable=0;fillColor=none;top=0;left=0;bottom=0;right=0;align=left;spacingLeft=6;overflow=hidden;shadow=0;" parent="DQ-XxoIGuYa2lr0NDk-D-141" vertex="1">
                    <mxGeometry x="40" width="70" height="20" as="geometry">
                        <mxRectangle width="70" height="20" as="alternateBounds"/>
                    </mxGeometry>
                </mxCell>
                <mxCell id="DQ-XxoIGuYa2lr0NDk-D-144" value="varchar" style="shape=partialRectangle;connectable=0;fillColor=none;top=0;left=0;bottom=0;right=0;align=left;spacingLeft=6;overflow=hidden;shadow=0;" parent="DQ-XxoIGuYa2lr0NDk-D-141" vertex="1">
                    <mxGeometry x="110" width="80" height="20" as="geometry">
                        <mxRectangle width="80" height="20" as="alternateBounds"/>
                    </mxGeometry>
                </mxCell>
                <mxCell id="DQ-XxoIGuYa2lr0NDk-D-145" value="" style="shape=partialRectangle;connectable=0;fillColor=none;top=0;left=0;bottom=0;right=0;align=left;spacingLeft=6;overflow=hidden;shadow=0;" parent="DQ-XxoIGuYa2lr0NDk-D-141" vertex="1">
                    <mxGeometry x="190" width="120" height="20" as="geometry">
                        <mxRectangle width="120" height="20" as="alternateBounds"/>
                    </mxGeometry>
                </mxCell>
                <mxCell id="DQ-XxoIGuYa2lr0NDk-D-146" value="手机号" style="shape=partialRectangle;connectable=0;fillColor=none;top=0;left=0;bottom=0;right=0;align=left;spacingLeft=6;overflow=hidden;shadow=0;" parent="DQ-XxoIGuYa2lr0NDk-D-141" vertex="1">
                    <mxGeometry x="310" width="110" height="20" as="geometry">
                        <mxRectangle width="110" height="20" as="alternateBounds"/>
                    </mxGeometry>
                </mxCell>
                <mxCell id="DQ-XxoIGuYa2lr0NDk-D-147" value="" style="shape=partialRectangle;collapsible=0;dropTarget=0;pointerEvents=0;fillColor=none;top=0;left=0;bottom=0;right=0;points=[[0,0.5],[1,0.5]];portConstraint=eastwest;shadow=0;" parent="DQ-XxoIGuYa2lr0NDk-D-104" vertex="1">
                    <mxGeometry y="170" width="420" height="20" as="geometry"/>
                </mxCell>
                <mxCell id="DQ-XxoIGuYa2lr0NDk-D-148" value="N" style="shape=partialRectangle;connectable=0;fillColor=none;top=0;left=0;bottom=0;right=0;editable=1;overflow=hidden;shadow=0;" parent="DQ-XxoIGuYa2lr0NDk-D-147" vertex="1">
                    <mxGeometry width="40" height="20" as="geometry">
                        <mxRectangle width="40" height="20" as="alternateBounds"/>
                    </mxGeometry>
                </mxCell>
                <mxCell id="DQ-XxoIGuYa2lr0NDk-D-149" value="email" style="shape=partialRectangle;connectable=0;fillColor=none;top=0;left=0;bottom=0;right=0;align=left;spacingLeft=6;overflow=hidden;shadow=0;" parent="DQ-XxoIGuYa2lr0NDk-D-147" vertex="1">
                    <mxGeometry x="40" width="70" height="20" as="geometry">
                        <mxRectangle width="70" height="20" as="alternateBounds"/>
                    </mxGeometry>
                </mxCell>
                <mxCell id="DQ-XxoIGuYa2lr0NDk-D-150" value="varchar" style="shape=partialRectangle;connectable=0;fillColor=none;top=0;left=0;bottom=0;right=0;align=left;spacingLeft=6;overflow=hidden;shadow=0;" parent="DQ-XxoIGuYa2lr0NDk-D-147" vertex="1">
                    <mxGeometry x="110" width="80" height="20" as="geometry">
                        <mxRectangle width="80" height="20" as="alternateBounds"/>
                    </mxGeometry>
                </mxCell>
                <mxCell id="DQ-XxoIGuYa2lr0NDk-D-151" value="" style="shape=partialRectangle;connectable=0;fillColor=none;top=0;left=0;bottom=0;right=0;align=left;spacingLeft=6;overflow=hidden;shadow=0;" parent="DQ-XxoIGuYa2lr0NDk-D-147" vertex="1">
                    <mxGeometry x="190" width="120" height="20" as="geometry">
                        <mxRectangle width="120" height="20" as="alternateBounds"/>
                    </mxGeometry>
                </mxCell>
                <mxCell id="DQ-XxoIGuYa2lr0NDk-D-152" value="邮箱" style="shape=partialRectangle;connectable=0;fillColor=none;top=0;left=0;bottom=0;right=0;align=left;spacingLeft=6;overflow=hidden;shadow=0;" parent="DQ-XxoIGuYa2lr0NDk-D-147" vertex="1">
                    <mxGeometry x="310" width="110" height="20" as="geometry">
                        <mxRectangle width="110" height="20" as="alternateBounds"/>
                    </mxGeometry>
                </mxCell>
                <mxCell id="DQ-XxoIGuYa2lr0NDk-D-153" value="" style="shape=partialRectangle;collapsible=0;dropTarget=0;pointerEvents=0;fillColor=none;top=0;left=0;bottom=0;right=0;points=[[0,0.5],[1,0.5]];portConstraint=eastwest;shadow=0;" parent="DQ-XxoIGuYa2lr0NDk-D-104" vertex="1">
                    <mxGeometry y="190" width="420" height="20" as="geometry"/>
                </mxCell>
                <mxCell id="DQ-XxoIGuYa2lr0NDk-D-154" value="" style="shape=partialRectangle;connectable=0;fillColor=none;top=0;left=0;bottom=0;right=0;editable=1;overflow=hidden;shadow=0;" parent="DQ-XxoIGuYa2lr0NDk-D-153" vertex="1">
                    <mxGeometry width="40" height="20" as="geometry">
                        <mxRectangle width="40" height="20" as="alternateBounds"/>
                    </mxGeometry>
                </mxCell>
                <mxCell id="DQ-XxoIGuYa2lr0NDk-D-155" value="email_status" style="shape=partialRectangle;connectable=0;fillColor=none;top=0;left=0;bottom=0;right=0;align=left;spacingLeft=6;overflow=hidden;shadow=0;" parent="DQ-XxoIGuYa2lr0NDk-D-153" vertex="1">
                    <mxGeometry x="40" width="70" height="20" as="geometry">
                        <mxRectangle width="70" height="20" as="alternateBounds"/>
                    </mxGeometry>
                </mxCell>
                <mxCell id="DQ-XxoIGuYa2lr0NDk-D-156" value="tinyint" style="shape=partialRectangle;connectable=0;fillColor=none;top=0;left=0;bottom=0;right=0;align=left;spacingLeft=6;overflow=hidden;shadow=0;" parent="DQ-XxoIGuYa2lr0NDk-D-153" vertex="1">
                    <mxGeometry x="110" width="80" height="20" as="geometry">
                        <mxRectangle width="80" height="20" as="alternateBounds"/>
                    </mxGeometry>
                </mxCell>
                <mxCell id="DQ-XxoIGuYa2lr0NDk-D-157" value="u, d(0)" style="shape=partialRectangle;connectable=0;fillColor=none;top=0;left=0;bottom=0;right=0;align=left;spacingLeft=6;overflow=hidden;shadow=0;" parent="DQ-XxoIGuYa2lr0NDk-D-153" vertex="1">
                    <mxGeometry x="190" width="120" height="20" as="geometry">
                        <mxRectangle width="120" height="20" as="alternateBounds"/>
                    </mxGeometry>
                </mxCell>
                <mxCell id="DQ-XxoIGuYa2lr0NDk-D-158" value="邮箱验证&amp;状态" style="shape=partialRectangle;connectable=0;fillColor=none;top=0;left=0;bottom=0;right=0;align=left;spacingLeft=6;overflow=hidden;shadow=0;" parent="DQ-XxoIGuYa2lr0NDk-D-153" vertex="1">
                    <mxGeometry x="310" width="110" height="20" as="geometry">
                        <mxRectangle width="110" height="20" as="alternateBounds"/>
                    </mxGeometry>
                </mxCell>
                <mxCell id="DQ-XxoIGuYa2lr0NDk-D-159" value="" style="shape=partialRectangle;collapsible=0;dropTarget=0;pointerEvents=0;fillColor=none;top=0;left=0;bottom=0;right=0;points=[[0,0.5],[1,0.5]];portConstraint=eastwest;shadow=0;" parent="DQ-XxoIGuYa2lr0NDk-D-104" vertex="1">
                    <mxGeometry y="210" width="420" height="20" as="geometry"/>
                </mxCell>
                <mxCell id="DQ-XxoIGuYa2lr0NDk-D-160" value="N" style="shape=partialRectangle;connectable=0;fillColor=none;top=0;left=0;bottom=0;right=0;editable=1;overflow=hidden;shadow=0;" parent="DQ-XxoIGuYa2lr0NDk-D-159" vertex="1">
                    <mxGeometry width="40" height="20" as="geometry">
                        <mxRectangle width="40" height="20" as="alternateBounds"/>
                    </mxGeometry>
                </mxCell>
                <mxCell id="DQ-XxoIGuYa2lr0NDk-D-161" value="birthday" style="shape=partialRectangle;connectable=0;fillColor=none;top=0;left=0;bottom=0;right=0;align=left;spacingLeft=6;overflow=hidden;shadow=0;" parent="DQ-XxoIGuYa2lr0NDk-D-159" vertex="1">
                    <mxGeometry x="40" width="70" height="20" as="geometry">
                        <mxRectangle width="70" height="20" as="alternateBounds"/>
                    </mxGeometry>
                </mxCell>
                <mxCell id="DQ-XxoIGuYa2lr0NDk-D-162" value="datatime" style="shape=partialRectangle;connectable=0;fillColor=none;top=0;left=0;bottom=0;right=0;align=left;spacingLeft=6;overflow=hidden;shadow=0;" parent="DQ-XxoIGuYa2lr0NDk-D-159" vertex="1">
                    <mxGeometry x="110" width="80" height="20" as="geometry">
                        <mxRectangle width="80" height="20" as="alternateBounds"/>
                    </mxGeometry>
                </mxCell>
                <mxCell id="DQ-XxoIGuYa2lr0NDk-D-163" value="" style="shape=partialRectangle;connectable=0;fillColor=none;top=0;left=0;bottom=0;right=0;align=left;spacingLeft=6;overflow=hidden;shadow=0;" parent="DQ-XxoIGuYa2lr0NDk-D-159" vertex="1">
                    <mxGeometry x="190" width="120" height="20" as="geometry">
                        <mxRectangle width="120" height="20" as="alternateBounds"/>
                    </mxGeometry>
                </mxCell>
                <mxCell id="DQ-XxoIGuYa2lr0NDk-D-164" value="生日" style="shape=partialRectangle;connectable=0;fillColor=none;top=0;left=0;bottom=0;right=0;align=left;spacingLeft=6;overflow=hidden;shadow=0;" parent="DQ-XxoIGuYa2lr0NDk-D-159" vertex="1">
                    <mxGeometry x="310" width="110" height="20" as="geometry">
                        <mxRectangle width="110" height="20" as="alternateBounds"/>
                    </mxGeometry>
                </mxCell>
                <mxCell id="DQ-XxoIGuYa2lr0NDk-D-165" value="" style="shape=partialRectangle;collapsible=0;dropTarget=0;pointerEvents=0;fillColor=none;top=0;left=0;bottom=0;right=0;points=[[0,0.5],[1,0.5]];portConstraint=eastwest;shadow=0;" parent="DQ-XxoIGuYa2lr0NDk-D-104" vertex="1">
                    <mxGeometry y="230" width="420" height="20" as="geometry"/>
                </mxCell>
                <mxCell id="DQ-XxoIGuYa2lr0NDk-D-166" value="N" style="shape=partialRectangle;connectable=0;fillColor=none;top=0;left=0;bottom=0;right=0;editable=1;overflow=hidden;shadow=0;" parent="DQ-XxoIGuYa2lr0NDk-D-165" vertex="1">
                    <mxGeometry width="40" height="20" as="geometry">
                        <mxRectangle width="40" height="20" as="alternateBounds"/>
                    </mxGeometry>
                </mxCell>
                <mxCell id="DQ-XxoIGuYa2lr0NDk-D-167" value="last_ip" style="shape=partialRectangle;connectable=0;fillColor=none;top=0;left=0;bottom=0;right=0;align=left;spacingLeft=6;overflow=hidden;shadow=0;" parent="DQ-XxoIGuYa2lr0NDk-D-165" vertex="1">
                    <mxGeometry x="40" width="70" height="20" as="geometry">
                        <mxRectangle width="70" height="20" as="alternateBounds"/>
                    </mxGeometry>
                </mxCell>
                <mxCell id="DQ-XxoIGuYa2lr0NDk-D-168" value="varchar" style="shape=partialRectangle;connectable=0;fillColor=none;top=0;left=0;bottom=0;right=0;align=left;spacingLeft=6;overflow=hidden;shadow=0;" parent="DQ-XxoIGuYa2lr0NDk-D-165" vertex="1">
                    <mxGeometry x="110" width="80" height="20" as="geometry">
                        <mxRectangle width="80" height="20" as="alternateBounds"/>
                    </mxGeometry>
                </mxCell>
                <mxCell id="DQ-XxoIGuYa2lr0NDk-D-169" value="" style="shape=partialRectangle;connectable=0;fillColor=none;top=0;left=0;bottom=0;right=0;align=left;spacingLeft=6;overflow=hidden;shadow=0;" parent="DQ-XxoIGuYa2lr0NDk-D-165" vertex="1">
                    <mxGeometry x="190" width="120" height="20" as="geometry">
                        <mxRectangle width="120" height="20" as="alternateBounds"/>
                    </mxGeometry>
                </mxCell>
                <mxCell id="DQ-XxoIGuYa2lr0NDk-D-170" value="最后一次ip" style="shape=partialRectangle;connectable=0;fillColor=none;top=0;left=0;bottom=0;right=0;align=left;spacingLeft=6;overflow=hidden;shadow=0;" parent="DQ-XxoIGuYa2lr0NDk-D-165" vertex="1">
                    <mxGeometry x="310" width="110" height="20" as="geometry">
                        <mxRectangle width="110" height="20" as="alternateBounds"/>
                    </mxGeometry>
                </mxCell>
                <mxCell id="DQ-XxoIGuYa2lr0NDk-D-171" value="" style="shape=partialRectangle;collapsible=0;dropTarget=0;pointerEvents=0;fillColor=none;top=0;left=0;bottom=0;right=0;points=[[0,0.5],[1,0.5]];portConstraint=eastwest;shadow=0;" parent="DQ-XxoIGuYa2lr0NDk-D-104" vertex="1">
                    <mxGeometry y="250" width="420" height="20" as="geometry"/>
                </mxCell>
                <mxCell id="DQ-XxoIGuYa2lr0NDk-D-172" value="N" style="shape=partialRectangle;connectable=0;fillColor=none;top=0;left=0;bottom=0;right=0;editable=1;overflow=hidden;shadow=0;" parent="DQ-XxoIGuYa2lr0NDk-D-171" vertex="1">
                    <mxGeometry width="40" height="20" as="geometry">
                        <mxRectangle width="40" height="20" as="alternateBounds"/>
                    </mxGeometry>
                </mxCell>
                <mxCell id="DQ-XxoIGuYa2lr0NDk-D-173" value="last_time" style="shape=partialRectangle;connectable=0;fillColor=none;top=0;left=0;bottom=0;right=0;align=left;spacingLeft=6;overflow=hidden;shadow=0;" parent="DQ-XxoIGuYa2lr0NDk-D-171" vertex="1">
                    <mxGeometry x="40" width="70" height="20" as="geometry">
                        <mxRectangle width="70" height="20" as="alternateBounds"/>
                    </mxGeometry>
                </mxCell>
                <mxCell id="DQ-XxoIGuYa2lr0NDk-D-174" value="datetime" style="shape=partialRectangle;connectable=0;fillColor=none;top=0;left=0;bottom=0;right=0;align=left;spacingLeft=6;overflow=hidden;shadow=0;" parent="DQ-XxoIGuYa2lr0NDk-D-171" vertex="1">
                    <mxGeometry x="110" width="80" height="20" as="geometry">
                        <mxRectangle width="80" height="20" as="alternateBounds"/>
                    </mxGeometry>
                </mxCell>
                <mxCell id="DQ-XxoIGuYa2lr0NDk-D-175" value="" style="shape=partialRectangle;connectable=0;fillColor=none;top=0;left=0;bottom=0;right=0;align=left;spacingLeft=6;overflow=hidden;shadow=0;" parent="DQ-XxoIGuYa2lr0NDk-D-171" vertex="1">
                    <mxGeometry x="190" width="120" height="20" as="geometry">
                        <mxRectangle width="120" height="20" as="alternateBounds"/>
                    </mxGeometry>
                </mxCell>
                <mxCell id="DQ-XxoIGuYa2lr0NDk-D-176" value="最后登录时间" style="shape=partialRectangle;connectable=0;fillColor=none;top=0;left=0;bottom=0;right=0;align=left;spacingLeft=6;overflow=hidden;shadow=0;" parent="DQ-XxoIGuYa2lr0NDk-D-171" vertex="1">
                    <mxGeometry x="310" width="110" height="20" as="geometry">
                        <mxRectangle width="110" height="20" as="alternateBounds"/>
                    </mxGeometry>
                </mxCell>
                <mxCell id="DQ-XxoIGuYa2lr0NDk-D-177" value="" style="shape=partialRectangle;collapsible=0;dropTarget=0;pointerEvents=0;fillColor=none;top=0;left=0;bottom=0;right=0;points=[[0,0.5],[1,0.5]];portConstraint=eastwest;shadow=0;" parent="DQ-XxoIGuYa2lr0NDk-D-104" vertex="1">
                    <mxGeometry y="270" width="420" height="20" as="geometry"/>
                </mxCell>
                <mxCell id="DQ-XxoIGuYa2lr0NDk-D-178" value="" style="shape=partialRectangle;connectable=0;fillColor=none;top=0;left=0;bottom=0;right=0;editable=1;overflow=hidden;shadow=0;" parent="DQ-XxoIGuYa2lr0NDk-D-177" vertex="1">
                    <mxGeometry width="40" height="20" as="geometry">
                        <mxRectangle width="40" height="20" as="alternateBounds"/>
                    </mxGeometry>
                </mxCell>
                <mxCell id="DQ-XxoIGuYa2lr0NDk-D-179" value="status" style="shape=partialRectangle;connectable=0;fillColor=none;top=0;left=0;bottom=0;right=0;align=left;spacingLeft=6;overflow=hidden;shadow=0;" parent="DQ-XxoIGuYa2lr0NDk-D-177" vertex="1">
                    <mxGeometry x="40" width="70" height="20" as="geometry">
                        <mxRectangle width="70" height="20" as="alternateBounds"/>
                    </mxGeometry>
                </mxCell>
                <mxCell id="DQ-XxoIGuYa2lr0NDk-D-180" value="tinyint    " style="shape=partialRectangle;connectable=0;fillColor=none;top=0;left=0;bottom=0;right=0;align=left;spacingLeft=6;overflow=hidden;shadow=0;" parent="DQ-XxoIGuYa2lr0NDk-D-177" vertex="1">
                    <mxGeometry x="110" width="80" height="20" as="geometry">
                        <mxRectangle width="80" height="20" as="alternateBounds"/>
                    </mxGeometry>
                </mxCell>
                <mxCell id="DQ-XxoIGuYa2lr0NDk-D-181" value="unsigned, default(1)" style="shape=partialRectangle;connectable=0;fillColor=none;top=0;left=0;bottom=0;right=0;align=left;spacingLeft=6;overflow=hidden;shadow=0;" parent="DQ-XxoIGuYa2lr0NDk-D-177" vertex="1">
                    <mxGeometry x="190" width="120" height="20" as="geometry">
                        <mxRectangle width="120" height="20" as="alternateBounds"/>
                    </mxGeometry>
                </mxCell>
                <mxCell id="DQ-XxoIGuYa2lr0NDk-D-182" value="状态 0否 1是" style="shape=partialRectangle;connectable=0;fillColor=none;top=0;left=0;bottom=0;right=0;align=left;spacingLeft=6;overflow=hidden;shadow=0;" parent="DQ-XxoIGuYa2lr0NDk-D-177" vertex="1">
                    <mxGeometry x="310" width="110" height="20" as="geometry">
                        <mxRectangle width="110" height="20" as="alternateBounds"/>
                    </mxGeometry>
                </mxCell>
                <mxCell id="DQ-XxoIGuYa2lr0NDk-D-183" value="" style="shape=partialRectangle;collapsible=0;dropTarget=0;pointerEvents=0;fillColor=none;top=0;left=0;bottom=0;right=0;points=[[0,0.5],[1,0.5]];portConstraint=eastwest;shadow=0;" parent="DQ-XxoIGuYa2lr0NDk-D-104" vertex="1">
                    <mxGeometry y="290" width="420" height="20" as="geometry"/>
                </mxCell>
                <mxCell id="DQ-XxoIGuYa2lr0NDk-D-184" value="N" style="shape=partialRectangle;connectable=0;fillColor=none;top=0;left=0;bottom=0;right=0;editable=1;overflow=hidden;shadow=0;" parent="DQ-XxoIGuYa2lr0NDk-D-183" vertex="1">
                    <mxGeometry width="40" height="20" as="geometry">
                        <mxRectangle width="40" height="20" as="alternateBounds"/>
                    </mxGeometry>
                </mxCell>
                <mxCell id="DQ-XxoIGuYa2lr0NDk-D-185" value="created_at" style="shape=partialRectangle;connectable=0;fillColor=none;top=0;left=0;bottom=0;right=0;align=left;spacingLeft=6;overflow=hidden;shadow=0;" parent="DQ-XxoIGuYa2lr0NDk-D-183" vertex="1">
                    <mxGeometry x="40" width="70" height="20" as="geometry">
                        <mxRectangle width="70" height="20" as="alternateBounds"/>
                    </mxGeometry>
                </mxCell>
                <mxCell id="DQ-XxoIGuYa2lr0NDk-D-186" value="datetime" style="shape=partialRectangle;connectable=0;fillColor=none;top=0;left=0;bottom=0;right=0;align=left;spacingLeft=6;overflow=hidden;shadow=0;" parent="DQ-XxoIGuYa2lr0NDk-D-183" vertex="1">
                    <mxGeometry x="110" width="80" height="20" as="geometry">
                        <mxRectangle width="80" height="20" as="alternateBounds"/>
                    </mxGeometry>
                </mxCell>
                <mxCell id="DQ-XxoIGuYa2lr0NDk-D-187" value="" style="shape=partialRectangle;connectable=0;fillColor=none;top=0;left=0;bottom=0;right=0;align=left;spacingLeft=6;overflow=hidden;shadow=0;" parent="DQ-XxoIGuYa2lr0NDk-D-183" vertex="1">
                    <mxGeometry x="190" width="120" height="20" as="geometry">
                        <mxRectangle width="120" height="20" as="alternateBounds"/>
                    </mxGeometry>
                </mxCell>
                <mxCell id="DQ-XxoIGuYa2lr0NDk-D-188" value="" style="shape=partialRectangle;connectable=0;fillColor=none;top=0;left=0;bottom=0;right=0;align=left;spacingLeft=6;overflow=hidden;shadow=0;" parent="DQ-XxoIGuYa2lr0NDk-D-183" vertex="1">
                    <mxGeometry x="310" width="110" height="20" as="geometry">
                        <mxRectangle width="110" height="20" as="alternateBounds"/>
                    </mxGeometry>
                </mxCell>
                <mxCell id="DQ-XxoIGuYa2lr0NDk-D-189" value="" style="shape=partialRectangle;collapsible=0;dropTarget=0;pointerEvents=0;fillColor=none;top=0;left=0;bottom=0;right=0;points=[[0,0.5],[1,0.5]];portConstraint=eastwest;shadow=0;" parent="DQ-XxoIGuYa2lr0NDk-D-104" vertex="1">
                    <mxGeometry y="310" width="420" height="20" as="geometry"/>
                </mxCell>
                <mxCell id="DQ-XxoIGuYa2lr0NDk-D-190" value="N" style="shape=partialRectangle;connectable=0;fillColor=none;top=0;left=0;bottom=0;right=0;editable=1;overflow=hidden;shadow=0;" parent="DQ-XxoIGuYa2lr0NDk-D-189" vertex="1">
                    <mxGeometry width="40" height="20" as="geometry">
                        <mxRectangle width="40" height="20" as="alternateBounds"/>
                    </mxGeometry>
                </mxCell>
                <mxCell id="DQ-XxoIGuYa2lr0NDk-D-191" value="updated_at" style="shape=partialRectangle;connectable=0;fillColor=none;top=0;left=0;bottom=0;right=0;align=left;spacingLeft=6;overflow=hidden;shadow=0;" parent="DQ-XxoIGuYa2lr0NDk-D-189" vertex="1">
                    <mxGeometry x="40" width="70" height="20" as="geometry">
                        <mxRectangle width="70" height="20" as="alternateBounds"/>
                    </mxGeometry>
                </mxCell>
                <mxCell id="DQ-XxoIGuYa2lr0NDk-D-192" value="datetime" style="shape=partialRectangle;connectable=0;fillColor=none;top=0;left=0;bottom=0;right=0;align=left;spacingLeft=6;overflow=hidden;shadow=0;" parent="DQ-XxoIGuYa2lr0NDk-D-189" vertex="1">
                    <mxGeometry x="110" width="80" height="20" as="geometry">
                        <mxRectangle width="80" height="20" as="alternateBounds"/>
                    </mxGeometry>
                </mxCell>
                <mxCell id="DQ-XxoIGuYa2lr0NDk-D-193" value="" style="shape=partialRectangle;connectable=0;fillColor=none;top=0;left=0;bottom=0;right=0;align=left;spacingLeft=6;overflow=hidden;shadow=0;" parent="DQ-XxoIGuYa2lr0NDk-D-189" vertex="1">
                    <mxGeometry x="190" width="120" height="20" as="geometry">
                        <mxRectangle width="120" height="20" as="alternateBounds"/>
                    </mxGeometry>
                </mxCell>
                <mxCell id="DQ-XxoIGuYa2lr0NDk-D-194" value="" style="shape=partialRectangle;connectable=0;fillColor=none;top=0;left=0;bottom=0;right=0;align=left;spacingLeft=6;overflow=hidden;shadow=0;" parent="DQ-XxoIGuYa2lr0NDk-D-189" vertex="1">
                    <mxGeometry x="310" width="110" height="20" as="geometry">
                        <mxRectangle width="110" height="20" as="alternateBounds"/>
                    </mxGeometry>
                </mxCell>
                <mxCell id="DQ-XxoIGuYa2lr0NDk-D-195" value="" style="shape=partialRectangle;collapsible=0;dropTarget=0;pointerEvents=0;fillColor=none;top=0;left=0;bottom=0;right=0;points=[[0,0.5],[1,0.5]];portConstraint=eastwest;shadow=0;" parent="DQ-XxoIGuYa2lr0NDk-D-104" vertex="1">
                    <mxGeometry y="330" width="420" height="20" as="geometry"/>
                </mxCell>
                <mxCell id="DQ-XxoIGuYa2lr0NDk-D-196" value="N" style="shape=partialRectangle;connectable=0;fillColor=none;top=0;left=0;bottom=0;right=0;editable=1;overflow=hidden;shadow=0;" parent="DQ-XxoIGuYa2lr0NDk-D-195" vertex="1">
                    <mxGeometry width="40" height="20" as="geometry">
                        <mxRectangle width="40" height="20" as="alternateBounds"/>
                    </mxGeometry>
                </mxCell>
                <mxCell id="DQ-XxoIGuYa2lr0NDk-D-197" value="deleted_at" style="shape=partialRectangle;connectable=0;fillColor=none;top=0;left=0;bottom=0;right=0;align=left;spacingLeft=6;overflow=hidden;shadow=0;" parent="DQ-XxoIGuYa2lr0NDk-D-195" vertex="1">
                    <mxGeometry x="40" width="70" height="20" as="geometry">
                        <mxRectangle width="70" height="20" as="alternateBounds"/>
                    </mxGeometry>
                </mxCell>
                <mxCell id="DQ-XxoIGuYa2lr0NDk-D-198" value="datetime&#10;" style="shape=partialRectangle;connectable=0;fillColor=none;top=0;left=0;bottom=0;right=0;align=left;spacingLeft=6;overflow=hidden;shadow=0;" parent="DQ-XxoIGuYa2lr0NDk-D-195" vertex="1">
                    <mxGeometry x="110" width="80" height="20" as="geometry">
                        <mxRectangle width="80" height="20" as="alternateBounds"/>
                    </mxGeometry>
                </mxCell>
                <mxCell id="DQ-XxoIGuYa2lr0NDk-D-199" value="" style="shape=partialRectangle;connectable=0;fillColor=none;top=0;left=0;bottom=0;right=0;align=left;spacingLeft=6;overflow=hidden;shadow=0;" parent="DQ-XxoIGuYa2lr0NDk-D-195" vertex="1">
                    <mxGeometry x="190" width="120" height="20" as="geometry">
                        <mxRectangle width="120" height="20" as="alternateBounds"/>
                    </mxGeometry>
                </mxCell>
                <mxCell id="DQ-XxoIGuYa2lr0NDk-D-200" value="" style="shape=partialRectangle;connectable=0;fillColor=none;top=0;left=0;bottom=0;right=0;align=left;spacingLeft=6;overflow=hidden;shadow=0;" parent="DQ-XxoIGuYa2lr0NDk-D-195" vertex="1">
                    <mxGeometry x="310" width="110" height="20" as="geometry">
                        <mxRectangle width="110" height="20" as="alternateBounds"/>
                    </mxGeometry>
                </mxCell>
                <mxCell id="DQ-XxoIGuYa2lr0NDk-D-201" value="roles(角色表)" style="shape=table;startSize=30;container=1;collapsible=1;childLayout=tableLayout;fixedRows=1;rowLines=0;fontStyle=1;align=center;resizeLast=1;fontSize=12;shadow=0;" parent="1" vertex="1">
                    <mxGeometry x="210" y="-540" width="470" height="181" as="geometry">
                        <mxRectangle x="230" y="360" width="60" height="30" as="alternateBounds"/>
                    </mxGeometry>
                </mxCell>
                <mxCell id="DQ-XxoIGuYa2lr0NDk-D-202" style="shape=partialRectangle;collapsible=0;dropTarget=0;pointerEvents=0;fillColor=none;top=0;left=0;bottom=0;right=0;points=[[0,0.5],[1,0.5]];portConstraint=eastwest;shadow=0;" parent="DQ-XxoIGuYa2lr0NDk-D-201" vertex="1">
                    <mxGeometry y="30" width="470" height="30" as="geometry"/>
                </mxCell>
                <mxCell id="DQ-XxoIGuYa2lr0NDk-D-203" value="PK" style="shape=partialRectangle;connectable=0;fillColor=none;top=0;left=0;bottom=0;right=0;editable=1;overflow=hidden;shadow=0;" parent="DQ-XxoIGuYa2lr0NDk-D-202" vertex="1">
                    <mxGeometry width="30" height="30" as="geometry">
                        <mxRectangle width="30" height="30" as="alternateBounds"/>
                    </mxGeometry>
                </mxCell>
                <mxCell id="DQ-XxoIGuYa2lr0NDk-D-204" value="id" style="shape=partialRectangle;connectable=0;fillColor=none;top=0;left=0;bottom=0;right=0;align=left;spacingLeft=6;overflow=hidden;shadow=0;" parent="DQ-XxoIGuYa2lr0NDk-D-202" vertex="1">
                    <mxGeometry x="30" width="70" height="30" as="geometry">
                        <mxRectangle width="70" height="30" as="alternateBounds"/>
                    </mxGeometry>
                </mxCell>
                <mxCell id="DQ-XxoIGuYa2lr0NDk-D-205" value="bigint(20)" style="shape=partialRectangle;connectable=0;fillColor=none;top=0;left=0;bottom=0;right=0;align=left;spacingLeft=6;overflow=hidden;shadow=0;" parent="DQ-XxoIGuYa2lr0NDk-D-202" vertex="1">
                    <mxGeometry x="100" width="60" height="30" as="geometry">
                        <mxRectangle width="60" height="30" as="alternateBounds"/>
                    </mxGeometry>
                </mxCell>
                <mxCell id="DQ-XxoIGuYa2lr0NDk-D-206" value="unsigned, auto" style="shape=partialRectangle;connectable=0;fillColor=none;top=0;left=0;bottom=0;right=0;align=left;spacingLeft=6;overflow=hidden;shadow=0;" parent="DQ-XxoIGuYa2lr0NDk-D-202" vertex="1">
                    <mxGeometry x="160" width="80" height="30" as="geometry">
                        <mxRectangle width="80" height="30" as="alternateBounds"/>
                    </mxGeometry>
                </mxCell>
                <mxCell id="DQ-XxoIGuYa2lr0NDk-D-207" style="shape=partialRectangle;connectable=0;fillColor=none;top=0;left=0;bottom=0;right=0;align=left;spacingLeft=6;overflow=hidden;shadow=0;" parent="DQ-XxoIGuYa2lr0NDk-D-202" vertex="1">
                    <mxGeometry x="240" width="60" height="30" as="geometry">
                        <mxRectangle width="60" height="30" as="alternateBounds"/>
                    </mxGeometry>
                </mxCell>
                <mxCell id="DQ-XxoIGuYa2lr0NDk-D-208" style="shape=partialRectangle;connectable=0;fillColor=none;top=0;left=0;bottom=0;right=0;align=left;spacingLeft=6;overflow=hidden;shadow=0;" parent="DQ-XxoIGuYa2lr0NDk-D-202" vertex="1">
                    <mxGeometry x="300" width="70" height="30" as="geometry">
                        <mxRectangle width="70" height="30" as="alternateBounds"/>
                    </mxGeometry>
                </mxCell>
                <mxCell id="DQ-XxoIGuYa2lr0NDk-D-209" value="主键" style="shape=partialRectangle;connectable=0;fillColor=none;top=0;left=0;bottom=0;right=0;align=left;spacingLeft=6;overflow=hidden;shadow=0;" parent="DQ-XxoIGuYa2lr0NDk-D-202" vertex="1">
                    <mxGeometry x="370" width="100" height="30" as="geometry">
                        <mxRectangle width="100" height="30" as="alternateBounds"/>
                    </mxGeometry>
                </mxCell>
                <mxCell id="DQ-XxoIGuYa2lr0NDk-D-210" value="" style="shape=partialRectangle;collapsible=0;dropTarget=0;pointerEvents=0;fillColor=none;top=0;left=0;bottom=0;right=0;points=[[0,0.5],[1,0.5]];portConstraint=eastwest;shadow=0;" parent="DQ-XxoIGuYa2lr0NDk-D-201" vertex="1">
                    <mxGeometry y="60" width="470" height="20" as="geometry"/>
                </mxCell>
                <mxCell id="DQ-XxoIGuYa2lr0NDk-D-211" value="" style="shape=partialRectangle;connectable=0;fillColor=none;top=0;left=0;bottom=0;right=0;editable=1;overflow=hidden;shadow=0;" parent="DQ-XxoIGuYa2lr0NDk-D-210" vertex="1">
                    <mxGeometry width="30" height="20" as="geometry">
                        <mxRectangle width="30" height="20" as="alternateBounds"/>
                    </mxGeometry>
                </mxCell>
                <mxCell id="DQ-XxoIGuYa2lr0NDk-D-212" value="name" style="shape=partialRectangle;connectable=0;fillColor=none;top=0;left=0;bottom=0;right=0;align=left;spacingLeft=6;overflow=hidden;shadow=0;" parent="DQ-XxoIGuYa2lr0NDk-D-210" vertex="1">
                    <mxGeometry x="30" width="70" height="20" as="geometry">
                        <mxRectangle width="70" height="20" as="alternateBounds"/>
                    </mxGeometry>
                </mxCell>
                <mxCell id="DQ-XxoIGuYa2lr0NDk-D-213" value="varchar" style="shape=partialRectangle;connectable=0;fillColor=none;top=0;left=0;bottom=0;right=0;align=left;spacingLeft=6;overflow=hidden;shadow=0;" parent="DQ-XxoIGuYa2lr0NDk-D-210" vertex="1">
                    <mxGeometry x="100" width="60" height="20" as="geometry">
                        <mxRectangle width="60" height="20" as="alternateBounds"/>
                    </mxGeometry>
                </mxCell>
                <mxCell id="DQ-XxoIGuYa2lr0NDk-D-214" value="" style="shape=partialRectangle;connectable=0;fillColor=none;top=0;left=0;bottom=0;right=0;align=left;spacingLeft=6;overflow=hidden;shadow=0;" parent="DQ-XxoIGuYa2lr0NDk-D-210" vertex="1">
                    <mxGeometry x="160" width="80" height="20" as="geometry">
                        <mxRectangle width="80" height="20" as="alternateBounds"/>
                    </mxGeometry>
                </mxCell>
                <mxCell id="DQ-XxoIGuYa2lr0NDk-D-215" style="shape=partialRectangle;connectable=0;fillColor=none;top=0;left=0;bottom=0;right=0;align=left;spacingLeft=6;overflow=hidden;shadow=0;" parent="DQ-XxoIGuYa2lr0NDk-D-210" vertex="1">
                    <mxGeometry x="240" width="60" height="20" as="geometry">
                        <mxRectangle width="60" height="20" as="alternateBounds"/>
                    </mxGeometry>
                </mxCell>
                <mxCell id="DQ-XxoIGuYa2lr0NDk-D-216" style="shape=partialRectangle;connectable=0;fillColor=none;top=0;left=0;bottom=0;right=0;align=left;spacingLeft=6;overflow=hidden;shadow=0;" parent="DQ-XxoIGuYa2lr0NDk-D-210" vertex="1">
                    <mxGeometry x="300" width="70" height="20" as="geometry">
                        <mxRectangle width="70" height="20" as="alternateBounds"/>
                    </mxGeometry>
                </mxCell>
                <mxCell id="DQ-XxoIGuYa2lr0NDk-D-217" value="名字" style="shape=partialRectangle;connectable=0;fillColor=none;top=0;left=0;bottom=0;right=0;align=left;spacingLeft=6;overflow=hidden;shadow=0;" parent="DQ-XxoIGuYa2lr0NDk-D-210" vertex="1">
                    <mxGeometry x="370" width="100" height="20" as="geometry">
                        <mxRectangle width="100" height="20" as="alternateBounds"/>
                    </mxGeometry>
                </mxCell>
                <mxCell id="DQ-XxoIGuYa2lr0NDk-D-218" value="" style="shape=partialRectangle;collapsible=0;dropTarget=0;pointerEvents=0;fillColor=none;top=0;left=0;bottom=0;right=0;points=[[0,0.5],[1,0.5]];portConstraint=eastwest;shadow=0;" parent="DQ-XxoIGuYa2lr0NDk-D-201" vertex="1">
                    <mxGeometry y="80" width="470" height="20" as="geometry"/>
                </mxCell>
                <mxCell id="DQ-XxoIGuYa2lr0NDk-D-219" value="U" style="shape=partialRectangle;connectable=0;fillColor=none;top=0;left=0;bottom=0;right=0;editable=1;overflow=hidden;shadow=0;" parent="DQ-XxoIGuYa2lr0NDk-D-218" vertex="1">
                    <mxGeometry width="30" height="20" as="geometry">
                        <mxRectangle width="30" height="20" as="alternateBounds"/>
                    </mxGeometry>
                </mxCell>
                <mxCell id="DQ-XxoIGuYa2lr0NDk-D-220" value="value" style="shape=partialRectangle;connectable=0;fillColor=none;top=0;left=0;bottom=0;right=0;align=left;spacingLeft=6;overflow=hidden;shadow=0;" parent="DQ-XxoIGuYa2lr0NDk-D-218" vertex="1">
                    <mxGeometry x="30" width="70" height="20" as="geometry">
                        <mxRectangle width="70" height="20" as="alternateBounds"/>
                    </mxGeometry>
                </mxCell>
                <mxCell id="DQ-XxoIGuYa2lr0NDk-D-221" value="varchar" style="shape=partialRectangle;connectable=0;fillColor=none;top=0;left=0;bottom=0;right=0;align=left;spacingLeft=6;overflow=hidden;shadow=0;" parent="DQ-XxoIGuYa2lr0NDk-D-218" vertex="1">
                    <mxGeometry x="100" width="60" height="20" as="geometry">
                        <mxRectangle width="60" height="20" as="alternateBounds"/>
                    </mxGeometry>
                </mxCell>
                <mxCell id="DQ-XxoIGuYa2lr0NDk-D-222" value="" style="shape=partialRectangle;connectable=0;fillColor=none;top=0;left=0;bottom=0;right=0;align=left;spacingLeft=6;overflow=hidden;shadow=0;" parent="DQ-XxoIGuYa2lr0NDk-D-218" vertex="1">
                    <mxGeometry x="160" width="80" height="20" as="geometry">
                        <mxRectangle width="80" height="20" as="alternateBounds"/>
                    </mxGeometry>
                </mxCell>
                <mxCell id="DQ-XxoIGuYa2lr0NDk-D-223" style="shape=partialRectangle;connectable=0;fillColor=none;top=0;left=0;bottom=0;right=0;align=left;spacingLeft=6;overflow=hidden;shadow=0;" parent="DQ-XxoIGuYa2lr0NDk-D-218" vertex="1">
                    <mxGeometry x="240" width="60" height="20" as="geometry">
                        <mxRectangle width="60" height="20" as="alternateBounds"/>
                    </mxGeometry>
                </mxCell>
                <mxCell id="DQ-XxoIGuYa2lr0NDk-D-224" style="shape=partialRectangle;connectable=0;fillColor=none;top=0;left=0;bottom=0;right=0;align=left;spacingLeft=6;overflow=hidden;shadow=0;" parent="DQ-XxoIGuYa2lr0NDk-D-218" vertex="1">
                    <mxGeometry x="300" width="70" height="20" as="geometry">
                        <mxRectangle width="70" height="20" as="alternateBounds"/>
                    </mxGeometry>
                </mxCell>
                <mxCell id="DQ-XxoIGuYa2lr0NDk-D-225" value="值" style="shape=partialRectangle;connectable=0;fillColor=none;top=0;left=0;bottom=0;right=0;align=left;spacingLeft=6;overflow=hidden;shadow=0;" parent="DQ-XxoIGuYa2lr0NDk-D-218" vertex="1">
                    <mxGeometry x="370" width="100" height="20" as="geometry">
                        <mxRectangle width="100" height="20" as="alternateBounds"/>
                    </mxGeometry>
                </mxCell>
                <mxCell id="DQ-XxoIGuYa2lr0NDk-D-226" value="" style="shape=partialRectangle;collapsible=0;dropTarget=0;pointerEvents=0;fillColor=none;top=0;left=0;bottom=0;right=0;points=[[0,0.5],[1,0.5]];portConstraint=eastwest;shadow=0;" parent="DQ-XxoIGuYa2lr0NDk-D-201" vertex="1">
                    <mxGeometry y="100" width="470" height="20" as="geometry"/>
                </mxCell>
                <mxCell id="DQ-XxoIGuYa2lr0NDk-D-227" value="N" style="shape=partialRectangle;connectable=0;fillColor=none;top=0;left=0;bottom=0;right=0;editable=1;overflow=hidden;shadow=0;" parent="DQ-XxoIGuYa2lr0NDk-D-226" vertex="1">
                    <mxGeometry width="30" height="20" as="geometry">
                        <mxRectangle width="30" height="20" as="alternateBounds"/>
                    </mxGeometry>
                </mxCell>
                <mxCell id="DQ-XxoIGuYa2lr0NDk-D-228" value="desc" style="shape=partialRectangle;connectable=0;fillColor=none;top=0;left=0;bottom=0;right=0;align=left;spacingLeft=6;overflow=hidden;shadow=0;" parent="DQ-XxoIGuYa2lr0NDk-D-226" vertex="1">
                    <mxGeometry x="30" width="70" height="20" as="geometry">
                        <mxRectangle width="70" height="20" as="alternateBounds"/>
                    </mxGeometry>
                </mxCell>
                <mxCell id="DQ-XxoIGuYa2lr0NDk-D-229" value="varchar" style="shape=partialRectangle;connectable=0;fillColor=none;top=0;left=0;bottom=0;right=0;align=left;spacingLeft=6;overflow=hidden;shadow=0;" parent="DQ-XxoIGuYa2lr0NDk-D-226" vertex="1">
                    <mxGeometry x="100" width="60" height="20" as="geometry">
                        <mxRectangle width="60" height="20" as="alternateBounds"/>
                    </mxGeometry>
                </mxCell>
                <mxCell id="DQ-XxoIGuYa2lr0NDk-D-230" value="" style="shape=partialRectangle;connectable=0;fillColor=none;top=0;left=0;bottom=0;right=0;align=left;spacingLeft=6;overflow=hidden;shadow=0;" parent="DQ-XxoIGuYa2lr0NDk-D-226" vertex="1">
                    <mxGeometry x="160" width="80" height="20" as="geometry">
                        <mxRectangle width="80" height="20" as="alternateBounds"/>
                    </mxGeometry>
                </mxCell>
                <mxCell id="DQ-XxoIGuYa2lr0NDk-D-231" style="shape=partialRectangle;connectable=0;fillColor=none;top=0;left=0;bottom=0;right=0;align=left;spacingLeft=6;overflow=hidden;shadow=0;" parent="DQ-XxoIGuYa2lr0NDk-D-226" vertex="1">
                    <mxGeometry x="240" width="60" height="20" as="geometry">
                        <mxRectangle width="60" height="20" as="alternateBounds"/>
                    </mxGeometry>
                </mxCell>
                <mxCell id="DQ-XxoIGuYa2lr0NDk-D-232" style="shape=partialRectangle;connectable=0;fillColor=none;top=0;left=0;bottom=0;right=0;align=left;spacingLeft=6;overflow=hidden;shadow=0;" parent="DQ-XxoIGuYa2lr0NDk-D-226" vertex="1">
                    <mxGeometry x="300" width="70" height="20" as="geometry">
                        <mxRectangle width="70" height="20" as="alternateBounds"/>
                    </mxGeometry>
                </mxCell>
                <mxCell id="DQ-XxoIGuYa2lr0NDk-D-233" value="描述" style="shape=partialRectangle;connectable=0;fillColor=none;top=0;left=0;bottom=0;right=0;align=left;spacingLeft=6;overflow=hidden;shadow=0;" parent="DQ-XxoIGuYa2lr0NDk-D-226" vertex="1">
                    <mxGeometry x="370" width="100" height="20" as="geometry">
                        <mxRectangle width="100" height="20" as="alternateBounds"/>
                    </mxGeometry>
                </mxCell>
                <mxCell id="DQ-XxoIGuYa2lr0NDk-D-234" value="" style="shape=partialRectangle;collapsible=0;dropTarget=0;pointerEvents=0;fillColor=none;top=0;left=0;bottom=0;right=0;points=[[0,0.5],[1,0.5]];portConstraint=eastwest;shadow=0;" parent="DQ-XxoIGuYa2lr0NDk-D-201" vertex="1">
                    <mxGeometry y="120" width="470" height="20" as="geometry"/>
                </mxCell>
                <mxCell id="DQ-XxoIGuYa2lr0NDk-D-235" value="" style="shape=partialRectangle;connectable=0;fillColor=none;top=0;left=0;bottom=0;right=0;editable=1;overflow=hidden;shadow=0;" parent="DQ-XxoIGuYa2lr0NDk-D-234" vertex="1">
                    <mxGeometry width="30" height="20" as="geometry">
                        <mxRectangle width="30" height="20" as="alternateBounds"/>
                    </mxGeometry>
                </mxCell>
                <mxCell id="DQ-XxoIGuYa2lr0NDk-D-236" value="status" style="shape=partialRectangle;connectable=0;fillColor=none;top=0;left=0;bottom=0;right=0;align=left;spacingLeft=6;overflow=hidden;shadow=0;" parent="DQ-XxoIGuYa2lr0NDk-D-234" vertex="1">
                    <mxGeometry x="30" width="70" height="20" as="geometry">
                        <mxRectangle width="70" height="20" as="alternateBounds"/>
                    </mxGeometry>
                </mxCell>
                <mxCell id="DQ-XxoIGuYa2lr0NDk-D-237" value="tinyint" style="shape=partialRectangle;connectable=0;fillColor=none;top=0;left=0;bottom=0;right=0;align=left;spacingLeft=6;overflow=hidden;shadow=0;" parent="DQ-XxoIGuYa2lr0NDk-D-234" vertex="1">
                    <mxGeometry x="100" width="60" height="20" as="geometry">
                        <mxRectangle width="60" height="20" as="alternateBounds"/>
                    </mxGeometry>
                </mxCell>
                <mxCell id="DQ-XxoIGuYa2lr0NDk-D-238" value="unsigned" style="shape=partialRectangle;connectable=0;fillColor=none;top=0;left=0;bottom=0;right=0;align=left;spacingLeft=6;overflow=hidden;shadow=0;" parent="DQ-XxoIGuYa2lr0NDk-D-234" vertex="1">
                    <mxGeometry x="160" width="80" height="20" as="geometry">
                        <mxRectangle width="80" height="20" as="alternateBounds"/>
                    </mxGeometry>
                </mxCell>
                <mxCell id="DQ-XxoIGuYa2lr0NDk-D-239" style="shape=partialRectangle;connectable=0;fillColor=none;top=0;left=0;bottom=0;right=0;align=left;spacingLeft=6;overflow=hidden;shadow=0;" parent="DQ-XxoIGuYa2lr0NDk-D-234" vertex="1">
                    <mxGeometry x="240" width="60" height="20" as="geometry">
                        <mxRectangle width="60" height="20" as="alternateBounds"/>
                    </mxGeometry>
                </mxCell>
                <mxCell id="DQ-XxoIGuYa2lr0NDk-D-240" style="shape=partialRectangle;connectable=0;fillColor=none;top=0;left=0;bottom=0;right=0;align=left;spacingLeft=6;overflow=hidden;shadow=0;" parent="DQ-XxoIGuYa2lr0NDk-D-234" vertex="1">
                    <mxGeometry x="300" width="70" height="20" as="geometry">
                        <mxRectangle width="70" height="20" as="alternateBounds"/>
                    </mxGeometry>
                </mxCell>
                <mxCell id="DQ-XxoIGuYa2lr0NDk-D-241" value="状态 0不启用 1启用" style="shape=partialRectangle;connectable=0;fillColor=none;top=0;left=0;bottom=0;right=0;align=left;spacingLeft=6;overflow=hidden;shadow=0;" parent="DQ-XxoIGuYa2lr0NDk-D-234" vertex="1">
                    <mxGeometry x="370" width="100" height="20" as="geometry">
                        <mxRectangle width="100" height="20" as="alternateBounds"/>
                    </mxGeometry>
                </mxCell>
                <mxCell id="DQ-XxoIGuYa2lr0NDk-D-242" value="" style="shape=partialRectangle;collapsible=0;dropTarget=0;pointerEvents=0;fillColor=none;top=0;left=0;bottom=0;right=0;points=[[0,0.5],[1,0.5]];portConstraint=eastwest;perimeterSpacing=0;shadow=0;" parent="DQ-XxoIGuYa2lr0NDk-D-201" vertex="1">
                    <mxGeometry y="140" width="470" height="20" as="geometry"/>
                </mxCell>
                <mxCell id="DQ-XxoIGuYa2lr0NDk-D-243" value="" style="shape=partialRectangle;connectable=0;fillColor=none;top=0;left=0;bottom=0;right=0;editable=1;overflow=hidden;shadow=0;" parent="DQ-XxoIGuYa2lr0NDk-D-242" vertex="1">
                    <mxGeometry width="30" height="20" as="geometry">
                        <mxRectangle width="30" height="20" as="alternateBounds"/>
                    </mxGeometry>
                </mxCell>
                <mxCell id="DQ-XxoIGuYa2lr0NDk-D-244" value="created_at" style="shape=partialRectangle;connectable=0;fillColor=none;top=0;left=0;bottom=0;right=0;align=left;spacingLeft=6;overflow=hidden;shadow=0;" parent="DQ-XxoIGuYa2lr0NDk-D-242" vertex="1">
                    <mxGeometry x="30" width="70" height="20" as="geometry">
                        <mxRectangle width="70" height="20" as="alternateBounds"/>
                    </mxGeometry>
                </mxCell>
                <mxCell id="DQ-XxoIGuYa2lr0NDk-D-245" value="datatime" style="shape=partialRectangle;connectable=0;fillColor=none;top=0;left=0;bottom=0;right=0;align=left;spacingLeft=6;overflow=hidden;shadow=0;" parent="DQ-XxoIGuYa2lr0NDk-D-242" vertex="1">
                    <mxGeometry x="100" width="60" height="20" as="geometry">
                        <mxRectangle width="60" height="20" as="alternateBounds"/>
                    </mxGeometry>
                </mxCell>
                <mxCell id="DQ-XxoIGuYa2lr0NDk-D-246" value="" style="shape=partialRectangle;connectable=0;fillColor=none;top=0;left=0;bottom=0;right=0;align=left;spacingLeft=6;overflow=hidden;shadow=0;" parent="DQ-XxoIGuYa2lr0NDk-D-242" vertex="1">
                    <mxGeometry x="160" width="80" height="20" as="geometry">
                        <mxRectangle width="80" height="20" as="alternateBounds"/>
                    </mxGeometry>
                </mxCell>
                <mxCell id="DQ-XxoIGuYa2lr0NDk-D-247" style="shape=partialRectangle;connectable=0;fillColor=none;top=0;left=0;bottom=0;right=0;align=left;spacingLeft=6;overflow=hidden;shadow=0;" parent="DQ-XxoIGuYa2lr0NDk-D-242" vertex="1">
                    <mxGeometry x="240" width="60" height="20" as="geometry">
                        <mxRectangle width="60" height="20" as="alternateBounds"/>
                    </mxGeometry>
                </mxCell>
                <mxCell id="DQ-XxoIGuYa2lr0NDk-D-248" style="shape=partialRectangle;connectable=0;fillColor=none;top=0;left=0;bottom=0;right=0;align=left;spacingLeft=6;overflow=hidden;shadow=0;" parent="DQ-XxoIGuYa2lr0NDk-D-242" vertex="1">
                    <mxGeometry x="300" width="70" height="20" as="geometry">
                        <mxRectangle width="70" height="20" as="alternateBounds"/>
                    </mxGeometry>
                </mxCell>
                <mxCell id="DQ-XxoIGuYa2lr0NDk-D-249" style="shape=partialRectangle;connectable=0;fillColor=none;top=0;left=0;bottom=0;right=0;align=left;spacingLeft=6;overflow=hidden;shadow=0;" parent="DQ-XxoIGuYa2lr0NDk-D-242" vertex="1">
                    <mxGeometry x="370" width="100" height="20" as="geometry">
                        <mxRectangle width="100" height="20" as="alternateBounds"/>
                    </mxGeometry>
                </mxCell>
                <mxCell id="DQ-XxoIGuYa2lr0NDk-D-250" value="" style="shape=partialRectangle;collapsible=0;dropTarget=0;pointerEvents=0;fillColor=none;top=0;left=0;bottom=0;right=0;points=[[0,0.5],[1,0.5]];portConstraint=eastwest;perimeterSpacing=0;shadow=0;" parent="DQ-XxoIGuYa2lr0NDk-D-201" vertex="1">
                    <mxGeometry y="160" width="470" height="20" as="geometry"/>
                </mxCell>
                <mxCell id="DQ-XxoIGuYa2lr0NDk-D-251" value="" style="shape=partialRectangle;connectable=0;fillColor=none;top=0;left=0;bottom=0;right=0;editable=1;overflow=hidden;shadow=0;" parent="DQ-XxoIGuYa2lr0NDk-D-250" vertex="1">
                    <mxGeometry width="30" height="20" as="geometry">
                        <mxRectangle width="30" height="20" as="alternateBounds"/>
                    </mxGeometry>
                </mxCell>
                <mxCell id="DQ-XxoIGuYa2lr0NDk-D-252" value="updated_at" style="shape=partialRectangle;connectable=0;fillColor=none;top=0;left=0;bottom=0;right=0;align=left;spacingLeft=6;overflow=hidden;shadow=0;" parent="DQ-XxoIGuYa2lr0NDk-D-250" vertex="1">
                    <mxGeometry x="30" width="70" height="20" as="geometry">
                        <mxRectangle width="70" height="20" as="alternateBounds"/>
                    </mxGeometry>
                </mxCell>
                <mxCell id="DQ-XxoIGuYa2lr0NDk-D-253" value="datatime" style="shape=partialRectangle;connectable=0;fillColor=none;top=0;left=0;bottom=0;right=0;align=left;spacingLeft=6;overflow=hidden;shadow=0;" parent="DQ-XxoIGuYa2lr0NDk-D-250" vertex="1">
                    <mxGeometry x="100" width="60" height="20" as="geometry">
                        <mxRectangle width="60" height="20" as="alternateBounds"/>
                    </mxGeometry>
                </mxCell>
                <mxCell id="DQ-XxoIGuYa2lr0NDk-D-254" value="" style="shape=partialRectangle;connectable=0;fillColor=none;top=0;left=0;bottom=0;right=0;align=left;spacingLeft=6;overflow=hidden;shadow=0;" parent="DQ-XxoIGuYa2lr0NDk-D-250" vertex="1">
                    <mxGeometry x="160" width="80" height="20" as="geometry">
                        <mxRectangle width="80" height="20" as="alternateBounds"/>
                    </mxGeometry>
                </mxCell>
                <mxCell id="DQ-XxoIGuYa2lr0NDk-D-255" style="shape=partialRectangle;connectable=0;fillColor=none;top=0;left=0;bottom=0;right=0;align=left;spacingLeft=6;overflow=hidden;shadow=0;" parent="DQ-XxoIGuYa2lr0NDk-D-250" vertex="1">
                    <mxGeometry x="240" width="60" height="20" as="geometry">
                        <mxRectangle width="60" height="20" as="alternateBounds"/>
                    </mxGeometry>
                </mxCell>
                <mxCell id="DQ-XxoIGuYa2lr0NDk-D-256" style="shape=partialRectangle;connectable=0;fillColor=none;top=0;left=0;bottom=0;right=0;align=left;spacingLeft=6;overflow=hidden;shadow=0;" parent="DQ-XxoIGuYa2lr0NDk-D-250" vertex="1">
                    <mxGeometry x="300" width="70" height="20" as="geometry">
                        <mxRectangle width="70" height="20" as="alternateBounds"/>
                    </mxGeometry>
                </mxCell>
                <mxCell id="DQ-XxoIGuYa2lr0NDk-D-257" style="shape=partialRectangle;connectable=0;fillColor=none;top=0;left=0;bottom=0;right=0;align=left;spacingLeft=6;overflow=hidden;shadow=0;" parent="DQ-XxoIGuYa2lr0NDk-D-250" vertex="1">
                    <mxGeometry x="370" width="100" height="20" as="geometry">
                        <mxRectangle width="100" height="20" as="alternateBounds"/>
                    </mxGeometry>
                </mxCell>
            </root>
        </mxGraphModel>
    </diagram>
</mxfile>